<?xml version="1.0" encoding="UTF-8"?>
<svg id="Calque_1" data-name="Calque 1" xmlns="http://www.w3.org/2000/svg" viewBox="0 0 49.18 58.4">
  <defs>
    <style>
      .cls-1 {
        fill: #e8403d;
      }

      .cls-2 {
        fill: #e52421;
      }
    </style>
  </defs>
  <polygon class="cls-2" points="31.44 19.44 48.93 58.23 30.62 30.91 24.06 35.01 .29 .04 24.61 25.45 31.44 19.44"/>
  <g>
    <path class="cls-1" d="M31.88,19.93c.01-.12-.16-.24-.32-.05l.09.36.23-.32Z"/>
    <path class="cls-1" d="M30.23,20.57c-.11.31-.18.74.17.85,0-.43.14-.37.13-.86.16-.19.39-.2.44-.09,0-.12.34-.2.3-.44-.41.02-.72.28-.9.72-.12,0-.11-.12-.13-.18Z"/>
    <path class="cls-1" d="M13.28,12.94l.12.18c-.03-.06-.07-.12-.12-.18Z"/>
    <path class="cls-1" d="M1.95,1.42s.02-.02-.02-.08c-.02,0-.03.01.02.08Z"/>
    <path class="cls-1" d="M.61.19s.04.03.06.05c-.03-.03-.06-.05-.06-.05Z"/>
    <path class="cls-1" d="M13.28,12.94l-.33-.5c-.05.11.17.29.33.5Z"/>
    <path class="cls-1" d="M28.27,23.36c.05-.07.08-.14.1-.21l-.13.16.02.05Z"/>
    <path class="cls-1" d="M18.19,17.68l.08.09c.05,0,.11,0,.17-.02l-.25-.07Z"/>
    <path class="cls-1" d="M21.71,21.29c-.07-.09-.3.07-.42.13.13-.03.23-.01.31.05.04-.04.08-.09.11-.17Z"/>
    <path class="cls-1" d="M26.66,23.25l.08-.12s-.06.08-.08.12Z"/>
    <path class="cls-1" d="M15.73,15.03s.04-.07.04-.1c-.03.02-.04.06-.04.1Z"/>
    <path class="cls-1" d="M32.64,25.31s.03-.01.05-.02c-.04-.02-.06-.02-.05.02Z"/>
    <path class="cls-1" d="M31.51,19.41l.05.07c.05-.01.1-.03.15-.05l-.2-.02Z"/>
    <path class="cls-1" d="M.14.72h0c-.05-.07-.04-.05,0,0Z"/>
    <path class="cls-1" d="M28.13,33.84c-.54.04.5-.69-.27-.54.12.06-.33.72.27.54Z"/>
    <path class="cls-1" d="M28.14,23.42s-.1.09-.15.14c.08-.06.12-.1.15-.14Z"/>
    <path class="cls-1" d="M27.86,33.3h0s-.08.02-.08.02c.03,0,.05-.01.08-.02Z"/>
    <path class="cls-1" d="M5.23,9.43c.11.07.16.09.22.1-.07-.05-.14-.1-.22-.1Z"/>
    <path class="cls-1" d="M1.64,2.95l-.06-.02c.06.04.07.04.06.02Z"/>
    <path class="cls-1" d="M9.75,15.38c.07.13.06.19.22.37,0-.02,0-.04,0-.06-.09-.06-.17-.15-.22-.3Z"/>
    <path class="cls-1" d="M12.44,19.34s0-.07,0-.1c-.03-.03-.06-.07-.09-.1l.09.2Z"/>
    <path class="cls-1" d="M38.16,37.23c.03-.12.09-.21.15-.29-.15.14-.48-.41-.15.29Z"/>
    <path class="cls-1" d="M28.16,23.24c.03.07.02.12-.02.18l.1-.11s-.04-.07-.08-.07Z"/>
    <path class="cls-1" d="M12.31,15.2s0,.06.01.09c0-.04,0-.07-.01-.09Z"/>
    <path class="cls-1" d="M41.05,44.42l-.09-.19c-.03-.06-.01-.01.09.19Z"/>
    <path class="cls-1" d="M13.47,16.91c-.01.16.01.3.06.43.03.01.07.03.1.03l-.16-.45Z"/>
    <path class="cls-1" d="M38.31,36.94h0s0,0,0,0Z"/>
    <path class="cls-1" d="M35.84,33.09c.26.6.46.13.71.17.42.67-.1.44-.16.76.29.4.75.61.89.94-.04.05-.04.12-.14.08.48.35.64,1.39,1.23,1.79-.01.05-.03.09-.05.11.13-.16.29-.26.42-.29.13.26.44.4.26.6-.07-.17-.16-.14-.27-.19l.22.24c-.2.39-.28-.33-.52-.23.35.5.9,1.02,1,1.48-.27.23-.55-.93-.57-.25l-.17-.7c-.27.72-.14-.41-.46.28.29.89.59.88.88,1.77.26.11.23-.18.48-.06.43.53.34.86.25,1.14-.05.14-.09.27-.08.41-.03.05-.02.05.13.08.25,0,.79.16.66.42-.18-.1-.36-.18-.53-.24.03.15.85.53.63.69-.28-.24-.31-.38-.36-.38-.39-.13.39.34.5.57l-.57-.44c.17.24.35.49.53.75.24.34.52.77.7,1.11-.27-.35-.55-.73-.78-.98.48.73.41.84-.01.27-.13-.18-.25-.35-.37-.52l1.12,1.76c-.27-.42-.37-.58-.7-1.08-.38-.56.7,1.1,1.17,1.86.13.24-.6-.92-.96-1.5.52.84,1.15,1.93,1.54,2.64.38.7.51.99-.17-.12l-.44-.76c-.24-.38.5.89,1.18,2.08.67,1.18,1.29,2.27.67,1.23l-.29-.52c-.23-.31.42.93.33.84-.29-.49-.8-1.37-1.71-3,1.11,2.03.75,1.42.55,1.06-.21-.36-.3-.5,1.08,2.09-1.42-2.62-1.09-2-3.01-5.56-.13-.25,1.41,2.77,1.52,3.05l-1.16-2.29,1.07,2.18-1.35-2.68.21.46c.32.63.64,1.28.83,1.64.17.37-.12-.15-.46-.82-.49-1-.85-1.74-.97-1.99.16.37.3.69.4.98l.07.2c-.1-.23-.23-.53-.39-.91-.05-.11-.1-.22-.14-.33.06.15.11.26.15.34.25.61-.88-1.96-.32-.67.23.53.42.97.54,1.25-.49-1.06-.54-1.14-.49-.94l-.34-.89c-.08-.17-.07-.11-.08-.07,0,.04-.04.06-.11-.04.09.31.32,1.32.23,1.24l-.17-.84c.03.4.14.43.12.84-.15-.29-.17-.92-.18-1.13,0,.05-.03.1-.05.13-.01-.18-.02-.31-.04-.54.01.2-.03-.01-.04-.14-.02-.14,0-.2-.05.04l.02-.14s-.06-.04-.11-.06c-.02-.02,0,.03-.07-.06l-.19-.25c-.12-.17-.25-.35-.4-.55-.24.14-.41-.22-.76-.34-.33-.66-.6-1.45-1.11-2.17-.46-.44-.3-.02-.59-.15.19-.18-.32-.9.09-.62-.62-.85-.79-1.09-1.71-2.08,0,.18.05.34-.07.32-.17-.18-.22-.52-.1-.56l.06.04c-.58-.52-.9-1.34-1.22-2.12-.16-.39-.32-.77-.51-1.09-.11-.21-.61-.91-.96-1.18l.08.07-1-1.1-.38.31c-.78.44.51-.55-.07-.37-.52.45-.93.76-1.32,1.03-.1.06-.19.13-.29.19l-.23.14c-.11.06-.22.13-.33.19-.44.24-.86.44-1.25.85-.56-.1-1.19.32-1.84.78l-.49.35c-.09.07-.07.06-.12.09-.06.03-.12.03-.11-.13l-.04.23s-.02.04-.02.06c-.06.07.01-.24.02-.29-.07.15-.04.23-.1.31-.06-.04-.12-.1-.18-.17l-.04-.06-.13-.2-.26-.4c-.35-.54-.68-1.1-1-1.68-.64-1.14-1.25-2.32-1.9-3.43-.49-.81-1.06.08-1.38-1.15l.46.09c-1.4-1.35-2.17-3.22-3.5-4.57.13.05.21,0,.31.15-.02-.46-.81-1.21-.97-1.1-.14-.25.11-.16.09-.36-.1-.41-.81-.65-.73-.95.01-.05.13.05.18.1-.24-.15-.65-1.01-.74-.65-.28-.65-.85-1.04-1.03-1.59-.46-.13-.55-1.07-.98-.92.2-.11.1-.41-.1-.72-.27-.42-.32-.35-.48-.4.16,0,.09-.11.33-.1-.04-.04-.19-.12-.52-.19.31-.02.14-.08-.11-.29-.23-.17-.5-.45.25.04-.69-.58-1.55-1.55-2.31-2.48.85.85.96.99,1.07,1.13.12.15.23.29.99.98-.6-.59-1.95-2.03-2.28-2.5-.04-.06-.06-.1-.04-.1.19.17.9.98,1.24,1.33-.5-.57-.59-.73-.69-.87-.1-.16-.21-.31-1.01-1.27.11.13.4.47.72.84-.13-.16.27.28-.87-1.03l.36.43c-.78-.88-1.68-1.93-2.56-2.98-.95-1.14-1.94-2.33-2.2-2.63,3.57,4.21.44.39,5.11,5.94-.6-.71-1.17-1.39-1.73-2.05.18.2.68.78,1.68,1.98-.84-1.04-2.18-2.63-2.36-2.89.5.61,1.02,1.23,1.72,2.08-1.32-1.6-2.77-3.39-2.39-2.97.29.36.22.27.99,1.21-1.06-1.35-1.95-2.49-2.92-3.72-.25-.34-.19-.31.47.48,2.33,2.9,2.16,2.68,3.76,4.68l-.59-.78-1.29-1.61c.21.23-1.31-1.75-.33-.55l.79,1.05c-.03-.06-.04-.11-.05-.15l-1.09-1.34c-.89-1.21-2.88-3.69-1.84-2.45.12.18.38.4,1.73,2.13,0,0,0,0,0,0-.52-.71-.99-1.38-.28-.51.78,1.04,1.96,2.61,2.47,3.3-.74-1-.7-.99-.67-.99.04,0,.06,0-.57-.91.54.74,1.12,1.55,1.33,1.85l-1-1.41c.48.62.65.85,1.29,1.75.51.6-2.07-2.84-.79-1.21.1.16.08.12.29.44.42.52.46.5.54.53.07.02.19.1.58.59,1.18,1.78-.04.09,1.04,1.68.08.03-.02-.23.03-.32.04-.09.22,0,.57.42l-.17-.24c-.39-.79-.14-.43.14,0,.29.45.57.94.58.76-.03.02.22.66.18.52.37.51.46.3,1.12.74-.03.03-.06.07-.09.11.1.19.22.34.34.49.13.15.22.24.41.49.2.01.39.24.41-.03.52,1.66,2.36,1.86,2.85,3.31-.12-.12-.36-.2-.27-.11l.91.76c.1-.23,0-.21-.05-.51.2.01.51.18.71.39-.48-.28-.26.26-.2.51.02-.08.14-.07.17-.14.13.73.41-.25.79.55l-.12.05c.26.18.58.28.79.55-.1.29-.32-.16-.5-.02.34.33,1.02.33,1.12.82-.19-.09-.4-.3-.59-.4.1.56.19.54.4.83l-.02-.03.46.68-.08-.21c.92-.05.93.79,1.82,1.05-.85-.27-.27.08-.53.25.08.21.23.5.11.49.44.11.3.59.93.73-.05.08.27.3.04.41.4.3.04-.2.16-.26.48.14,1.06,1.26,1.89,2.12.29-.26.6-.58.85-.96.46-.53.66-.88.76-1.13.12-.27.24-.54.51-.89.32-.08.05.43.05.43.45-.21.7-.46.97-.84-.01.12.11.12.28.11.25-.26-.05-.43.4-.63.01.14.05.34-.01.53.26-.35.45-.76.73-1.12.2.05-.03.37-.07.55.32-.38.86-.96.8-1.26l-.3.14c.13-.13.22.11.15.24-.18.44-.52.33-.6.28l.19-.25c-.62-.22-.88.9-1.38,1.29l-.08-.49-.26.69c-.17,0-.4-.1-.21-.36-.48.14-.2.38-.65.46-.06,0-.05-.03-.04-.07l-.25.38c0-.12-.25-.17,0-.31-.74.34-.79,1.11-1.12.98l.02-.06c-.27.33-.29.45-.25.55.02.12.12.21-.21.73-.1-.1-.18-.21-.24-.34-.04-.21-.08-.41-.1-.59-.03.11-.07.22-.12.32-.07-.09-.19-.25-.13-.36-.32-.03,0,.19-.23.24-.13-.34-.34-.51-.59-.76-.23-.23-.4-.44-.27-.65-.3.02.23.5-.29.19.26-.48-.53-.43-.7-.95.3-.08.52.36.35-.16-.54.1-.6-.77-.95-1.01-.28.24-.74-.56-1.32-.98.12-.05-.77-1.1-1.13-1.66l.06-.03c-.35.16-.77-.38-1.17-.68.17-.14.3-.13.55,0l-.32-.33c-.16,0-.31-.06-.54-.25l.28-.11c-.44-.44-1.09-.68-1.51-1.38-.22.14-.08.95-.78.46.08-.12.23-.3.42-.18-.06-.04-.26-.11-.32-.25l.4.08c-.18-.33-.27,0-.46-.23.15-.13-.05-.25.1-.33.06.04.12.24.25.27-.2-.26-.39-.63-.37-.82-.06.1-.19.18-.38.03-.44-.44.03-.32-.15-.65-.2-.01-.37-.4-.59-.2-.12-.13-.05-.25-.04-.36-.21-.03-1.39-1.4-1.16-.7l.06.09s-.03-.02-.05-.03h0s0,0,0,0c-.51-.32-.89-.78-1.37-1.37-.46-.57-1.02-1.27-1.42-1.61l-.09-.24c-.44-.3-1.19-1.14-1.19-.84-.14-.14-.68-.97-.83-1.3-.31-.22-.08.19-1.07-1.08.05-.2-.51-.76.17,0-.76-.92-1.38-1.8-1.3-1.32-.46-.84-1.39-1.91-1.48-1.89l.98,1.29c-.21-.17-.56-.56-.92-.97l-.92-1.44c-.33-.42-.6-.73-.8-.96-.29-.26.13.49.26.81.15.35.01.28-.87-.89.43.73.68.79,1.26,1.73-.2-.21-.67-.81-1.05-1.29-.39-.49-.7-.9-.73-.91-.31-.34-.11,0,.05.3.17.31.31.57.02.27.22.29.83,1.15.6.99-.45-.49-1.02-1.28-.99-1.35.04.02.12.12.18.2.03-.01.04-.06-.23-.4l.14.23c-.29-.34-.55-.49-.7-.76-.01.11.13.25.34.45-.24-.24-.34-.3-.44-.36-.1-.06-.21-.13-.37-.26.07.07.2.22.15.18C.29-.02.69.38.31.04c-.02-.02-.04-.03-.05-.04.06.12-.07-.12.11.23.06.17-.1-.09-.12-.15.05.14.09.25.05.28-.03.04-.12,0-.15.02l-.07-.16c.03.09.03.12.01.16l.24.2s-.03.07-.14-.05c.2.27.41.39.76.86-.11-.04.43.66-.07.16,0-.1-.11-.22-.25-.36-.14-.14-.33-.32-.37-.46.05.09.06.15,0,.13-.06-.05-.11-.12-.13-.16-.52-.33.59.72.71,1.06-.38-.43-.72-.7-.64-.59.02-.07.63.62,1.02,1.11-.24-.12.37.54.41.65.03,0,.07.01.09.02.49.55.53.65.82,1.05-.4-.41-.39-.49-.52-.6.51.59.37.51.14.33-.22-.16-.54-.43-.1.1-.38-.32-1.18-1.23-1.46-1.46.8.98-.46-.31-.35-.07.13.16.27.35.44.57.77.7.53.47,1.92,2.1l-.76-.98-.48-.67,1.37,1.59.25.29-.08-.12c-.18-.27-.76-.96-.65-.9.84.97.63.73,1.33,1.43-.59-.56-.36-.26,0,.18.48.59,1.01,1.21.73,1.02l-2.33-2.37c-.1.08.58.95,1.27,1.81.71.88,1.41,1.73,1.67,2.25,0-.07,0-.13,0-.18.85.83.67.93,1.24,1.6-.57-.49-.58-.37-.75-.41.36.27.75,1.13,1.74,1.89-.07.06-.12.14-.15.24.3.53.82,1.05,1.28,1.47.47.44.89.79,1.15,1.23-.53-.39-.4.05-1.15-.79.26.38.44.72.64.77-.01.09.26.37.51.64.26.27.49.52.5.71.2.13.43.12.66.47,0,.06-.09.04-.09.04.04-.02.18.11.27.17.09.05.18.06.19-.12,0,1.09,1.44,2.05,1.45,2.99.41.49.89,1.08,1.23,1.55-.07,0-.08.05-.13-.05.29.76.74.09,1.08.95,0,.56-.41-.3-.35,0-.47.47.69.85.72,1.57l-.11-.1c.08.51.84.8,1.23,1.45,0,0-.07,0-.08.05.57.24,1.21,1,1.7,1.55-.34-.05-.3-.2-.43.06.21.25.29-.31.72.19,0,.25.17.71-.02.92l-.36-.5c-.12.46.46.65.59.96l-.15.05c.57.75.91.54,1.45,1.4l.04-.15c.63.24.08.51.63.8l-.23.36c.28.25,1.04.85,1.47,1.35-.45-.14-1.01-.7-1.42-.99.2.3.72,1,.99,1.05-.11-.1-.3-.2-.33-.35.51.19.96.59,1.36,1.2-.35.16-.13.58.16,1.05.07.12.15.24.22.36.09.15.17.3.25.44.19.35.34.7.38,1.03.27.3.51.6.74.92.71-.47,1.42-.85,2.2-1.28.49-.24.99-.49,1.49-.83-.76-.22.36-.25-.04-.72.27-.22.39-.28.44-.26l1.09-.25c.31.02-.21.29-.11.39.67-.36.41.05.92-.08-.1-.07-.09-.17,0-.27.05-.05.11-.11.19-.16.11-.07.06-.03.1-.03-.05-.02-.03-.09-.16-.07l-.33.04c.09-.1.17-.18.25-.24.06-.05.06-.05.1-.05.06,0,.11.04.15.09.09.09.08.26.18.03,0,0,0,0,.01-.01v.03c-.04.08-.07.16-.08.23,0-.02.02-.04.03-.06.03,0,.06.02.13.04h.07s.14.14.21.19c.15.12.3.21.45.25,0,.12-.07.32-.24.14.67,1.13,2.06,2.14,2.38,3.16h-.18c.17.18.47.2.52.54-.06.02-.18,0-.12.1.12.08.58.4.69.71l-.29-.14c.55,1.17,1.44,1.41,2.12,2.24-.37.24.08,1.16.3,1.62l-.06.02c.56.93,2.32,2.8,3.39,4.1.38.99,1.12,2.19,1.9,3.4.8,1.23,1.61,2.44,2.51,4.03-.33-.64-.47-1.31-.33-1.19.46.85.23-.2.94,1.58l-.12-.2c.96,2.14,1.48,2.74,2.03,3.56l-1.16-2.68c.25.48.5.95.76,1.44.72,1.31.66.86.74.75.06-.15.23-.03.78,1.05-.12-.39,0-.3-.07-.58l.35.77c.3.3.4.34.6.34l.08.28c.06,0-.03-.27-.07-.45-.05-.19-.06-.29.05-.16l.18.33.25.19c-.03-.29.15-.25-.09-.86.05.09.16.26.17.32-.02-.18.48.12-.36-1.08.26.39.28.34.18.08-.1-.26-.36-.77-.56-1.17l.56.87c-.74-1.26-.98-1.63-1.35-2.38.05.03.52.73.38.59.29.26-.74-1.23-.49-1.06l.52.86c-.02-.2-.27-.56-.95-1.67-.43-.75-.05-.39.81.87-.03-.04-.05-.08-.09-.14-.57-.89-1.32-2.12-1.27-2.18.28.38.54.81.67,1.03.01-.2-.47-1.07-.86-1.76-.4-.71-.71-1.25-.53-1.18.24.31.34.41.38.44.46,1.04.8,1.82.7,1.65.79,1.12.46.29,1.87,2.56-.46-.78-1.09-1.86-1.72-2.94-.55-.95-.97-1.69-1.02-1.94.04.03.08.07.17.15l.11.18c-.03-.13-.18-.4-.36-.7-.03-.17-.04-.27-.16-.55.43.43-.26-.85-.46-1.31-.55-.54-.71-1.01-.93-.93.01-.03.1.14.25.45.05.08.09.17.14.24-.02-.03-.04-.05-.06-.08.14.29.31.67.52,1.1-.48-.72-.87-1.29-.74-1.39-.44-.55-.91-1.14-1.15-1.44.58.33.42-.54.72-.45-.4-.75-.86-1.62-1.29-2.43-.42-.76-.85-1.41-1.25-1.66-.18-.23.01-.34.04-.47.12.13.17.27.29.35-.36-.47-.7-1.42-1.09-1.39-.12-.68.46.2.03-.61l.15.07c-.21-1.89-2.07-2.29-2.2-4.43.01.15.02.22-.02.27-.63-2.22-2.22-4.16-2.66-6.44-.17-.63-.41-.59-.73-.88l.22-.25-.59-.47c-.62-.76,0-1.8-.93-2.7l-.12.22c-.14-.41-.67-1.2-.43-1.23-.05-.02-.25-.04-.22-.24l.14-.08-.68-.85c-.23-.8.62-.14.16-1.25-.24-.38-.94-.97-.97-.77.07.17.1.46-.04.54l-.24-.34c-.45.12-1.02.03-.9,1.08l.55.52-.11.3-.25-.53c-.06.39.2.51.42.67-.09.1-.12.22-.11.37l.69.44c-.13.15-.46-.13-.36.33.32.21.25-.45.59-.02-.06.39-.25.37.07.66-.09.1-.19.06-.3-.06.27.26.43.82.73.88-.1.42.55,1.04.13,1.19.14.06.57.42.72.7-.72-.32.46,1.1-.12,1.2.61.2.83,1.34,1.39,1.93-.05-.02-.16-.07-.16-.14.14.41.06.58.09.87.38-.11.74.47,1.11.7-.13.64-.55-.1-.81.2.28-.15.67.71.83.43-.05.46.04.36-.17.69.48-.14.23.31.64.49.02.63-.36.33.04.85-.01.34-.4-.11-.4-.11ZM41.69,44.01s-.01-.02-.01-.02c-.05-.08-.08-.16-.11-.2.03.05.06.11.12.22ZM41.99,44.65s-.04-.13-.09-.23c.25.32.53.7.56.77-.2-.28-.27-.3-.46-.53ZM45.59,47.9c.23.42.16.4.05.29-.09-.17-.19-.37-.32-.63-.03-.03-.06-.08-.09-.12.13.15.25.3.36.45Z"/>
    <path class="cls-1" d="M44.56,46.52c-.03-.06-.05-.09-.09-.16-.02,0-.04.01-.06.03.08.1.16.2.23.29-.03-.05-.05-.11-.08-.16Z"/>
    <path class="cls-1" d="M13.42,13.15l-.02-.03s.03.06.03.09c0-.03,0-.04-.01-.06Z"/>
    <polygon class="cls-1" points="40.76 43.74 41.03 44.27 40.81 43.83 40.76 43.74"/>
    <path class="cls-1" d="M17.73,19.05s0,.06.01.12c.01-.02,0-.06-.01-.12Z"/>
    <path class="cls-1" d="M19.8,21.3l.23.38c-.09-.17-.16-.29-.23-.38Z"/>
    <path class="cls-1" d="M21.33,23.1c.06-.01.09-.03.12-.05h0s-.12.05-.12.05Z"/>
    <path class="cls-1" d="M9.61,11.82s.06.07.09.1c.33.39.19.22-.09-.1Z"/>
    <path class="cls-1" d="M6.03,6.64c.19.26.37.52.56.78.21.25.3.36-.56-.78Z"/>
    <polygon class="cls-1" points="12.31 15.19 12.3 15.19 12.31 15.2 12.31 15.19"/>
    <path class="cls-1" d="M6.32,7.13c.41.51.41.49.26.28-.18-.21-.44-.52-.26-.28Z"/>
    <path class="cls-1" d="M29.86,22l.09-.07s-.02-.03-.02-.04l-.07.11Z"/>
    <path class="cls-1" d="M29.93,21.89l.07-.11s-.08.07-.07.11Z"/>
    <path class="cls-1" d="M30.15,21.55l-.15.23c.07-.06.16-.13.15-.23Z"/>
    <path class="cls-1" d="M27.43,23.95l.04.1s-.01-.06-.04-.1Z"/>
    <path class="cls-1" d="M26.74,24.6c.18-.13.57-.21.76-.47l-.03-.08c-.01.21-.68.28-.73.55Z"/>
    <path class="cls-1" d="M23.73,23.82c.19.23.26.35.39.53-.02-.18,0-.37.15-.25-.11-.35-.11-.26-.16-.17-.02.05-.05.1-.09.11-.05,0-.11-.01-.29-.22Z"/>
    <path class="cls-1" d="M22.14,21.94c.33.27.11-.11.17-.14-.26-.13-.32-.16-.17.14Z"/>
    <path class="cls-1" d="M8.17,7.34l-.45-.84c-.28-.24.19.34.45.84Z"/>
    <path class="cls-1" d="M9.36,10.49l.64.9-.69-1.06s.03.1.05.16Z"/>
    <polygon class="cls-1" points="2.53 1.04 2.46 .91 2.55 1.2 2.53 1.04"/>
    <path class="cls-1" d="M11.8,18.84l.2-.26c-.17-.15-.49,0-.2.26Z"/>
    <path class="cls-1" d="M19.3,29.3c-.05.2.07.56.32.66-.14-.25-.21-.56-.32-.66Z"/>
    <polygon class="cls-1" points="46.71 57.1 46.9 57.63 46.9 57.63 46.91 57.64 46.8 57.22 46.71 57.1"/>
  </g>
</svg>