<?xml version="1.0" encoding="UTF-8"?>
<svg id="Calque_1" data-name="Calque 1" xmlns="http://www.w3.org/2000/svg" viewBox="0 0 62.24 70.53">
  <defs>
    <style>
      .cls-1 {
        fill: #e84a42;
      }

      .cls-2 {
        fill: #e5332a;
      }
    </style>
  </defs>
  <g>
    <polygon class="cls-2" points="21.26 54.25 24.83 56.81 53.43 30.51 35.04 15.19 21.26 54.25"/>
    <g>
      <path class="cls-1" d="M23.6,54.94c-.09.14.33.22.39.27,0-.28-.49-.3-.39-.27Z"/>
      <polygon class="cls-1" points="23.58 52.13 23.72 52.23 23.46 51.72 23.58 52.13"/>
      <path class="cls-1" d="M24.41,49.8c-.75-.02-.19.88-.58,1.22h-.18s.48.39.48.39c.09-.54-.04-1.32.28-1.61Z"/>
      <path class="cls-1" d="M26.31,49.07c-.29-.02-.13-.35-.18.26.04-.02.06-.02.08-.03.01-.05.04-.12.1-.23Z"/>
      <path class="cls-1" d="M26.21,49.3c-.07.25.28-.08,0,0h0Z"/>
      <path class="cls-1" d="M26.46,48.11l.12.41c.18-.01.32-.29.39-.14-.01-.38-.19-.36-.51-.26Z"/>
      <path class="cls-1" d="M26.07,47.63l.04.2c.08,0,.11-.04-.04-.2Z"/>
      <path class="cls-1" d="M26.2,48.27l-.08-.43c-.13,0-.35-.06.02.19-.19-.1-.02.04.07.24Z"/>
      <path class="cls-1" d="M26.02,48.43c-.21.13-.39.33-.5-.08-.13.65.38.73.5.08Z"/>
      <path class="cls-1" d="M23.76,49.44l-.28.17.15.29c-.07-.14.35-.4.13-.46Z"/>
      <path class="cls-1" d="M27.52,46.22c-.14-.07-.42-.03-.61-.07l.08.3c.14-.09.31-.29.53-.23Z"/>
      <path class="cls-1" d="M26.91,46.15l-.12-.44c-.14.31-.05.41.12.44Z"/>
      <polygon class="cls-1" points="25.35 47.31 25.66 48.08 25.38 47.2 25.35 47.31"/>
      <polygon class="cls-1" points="28.02 44.86 28.28 45.18 27.9 44.64 28.02 44.86"/>
      <path class="cls-1" d="M28.28,43.93c.22.25.54-.04.65.18.04-.26-.12-.56-.27-.82.05.24-.06.45-.38.64Z"/>
      <path class="cls-1" d="M28.46,42.86c.03.12.11.27.2.43-.03-.13-.08-.27-.2-.43Z"/>
      <path class="cls-1" d="M27.07,45.12c.1,0,.34.03.51-.14h-.45s-.04.09-.06.14Z"/>
      <path class="cls-1" d="M27.11,44.99h.01c.07-.15.11-.25.13-.3-.02.04-.06.13-.14.3Z"/>
      <path class="cls-1" d="M27.06,45.16v-.03s-.05,0,0,.03Z"/>
      <path class="cls-1" d="M26.04,46.5c-.15-.29-.24-.81-.73-.51.22.25.5.07.73.51Z"/>
      <path class="cls-1" d="M26.49,45.16l-.23.35c.11.03.29.02.36.16l-.14-.51Z"/>
      <polygon class="cls-1" points="26.43 44.92 26.49 45.16 26.58 45.03 26.43 44.92"/>
      <path class="cls-1" d="M27.86,43.38c-.12-.23-.07-.41-.03-.62-.16.19-.28.4-.35.61.12.07.31.25.38.01Z"/>
      <path class="cls-1" d="M27.46,44.15v-.04c-.05.01-.07.02,0,.04Z"/>
      <path class="cls-1" d="M28.54,40.76s-.06,0-.08,0l.07.03.02-.04Z"/>
      <path class="cls-1" d="M27.39,43.38c-.14.14-.07.27.02.41,0-.14.02-.28.07-.42-.05-.03-.09-.05-.09,0Z"/>
      <path class="cls-1" d="M28.47,42.24c-.11.06-.22.13-.32.2.16-.04.42-.14.32-.2Z"/>
      <path class="cls-1" d="M27.58,44.09s0,.02,0,.03c.11-.02.06-.03,0-.03Z"/>
      <path class="cls-1" d="M27.58,44.09c-.03-.1-.1-.21-.17-.3,0,.11,0,.22.04.32.04-.01.09-.02.13-.02Z"/>
      <path class="cls-1" d="M26.17,39.24c.36.16.56.71.03.94.15.46,1.46.66,2.26.58-.16-.07-.31-.12-.4-.58-.25.06-.77.67-1,.23-.02-.57.28-.36.56-.53-.54.04-.45-.87-1.18-1.01l.09.52c-.11-.03-.22-.25-.36-.16Z"/>
      <path class="cls-1" d="M28.16,41.47v.17c.12-.15.31-.23.69-.36-.09-.32-.21-.42-.33-.49l-.32.74-.04-.07Z"/>
      <path class="cls-1" d="M27.91,42.33c-.36-.26-.41-.7-.93-.62-.13.46.23.44.31.77.16-.77.15.29.57-.16.02.17,0,.31-.03.43.1-.11.2-.22.32-.31h-.03s0,.01,0,.01h0c-.06.01-.1.01-.05-.01,0,0,0-.02,0-.02-.05-.02-.1-.06-.14-.09.16-.18.12,0,.14.09l.06.03h0s.04-.81.04-.81c-.11.14-.17.33-.24.69Z"/>
      <path class="cls-1" d="M24.58,45.29s.07,0,.1,0c-.03-.06-.06-.09-.1,0Z"/>
      <path class="cls-1" d="M24.93,45.08c.04.07.18.18.08.33-.18.11-.19-.07-.33-.11.07.14.16.47.48.21l-.04-.07c.24-.25.88-.45.92-.37-.4-.04-.68-.06-1.11.01Z"/>
      <path class="cls-1" d="M26.32,43.65l.02-.68-.46.19.22.06c-.21.32.08.33.23.44Z"/>
      <polygon class="cls-1" points="28.77 40.76 29.17 40.99 28.68 40.43 28.77 40.76"/>
      <polygon class="cls-1" points="28.99 39.95 29.36 40.11 29.21 39.82 28.99 39.95"/>
      <path class="cls-1" d="M54.78,28.54l.37.16c-.16-.08-.27-.13-.37-.16Z"/>
      <path class="cls-1" d="M53.09,27.1l-.21.08c.17,0,.28-.01.21-.08Z"/>
      <path class="cls-1" d="M35.65,20.97c.36.09.84.45.47.15l-.37-.27c.04.11-.01.12-.11.11Z"/>
      <path class="cls-1" d="M42.37,21.16s.01-.1.02-.15c-.15.07-.28.14-.41.2.12-.01.25-.03.39-.05Z"/>
      <path class="cls-1" d="M43.67,19.91l.1.45c0-.13-.03-.27-.1-.45Z"/>
      <path class="cls-1" d="M51.15,36.46l.14.48c.25-.24,0-.3-.14-.48Z"/>
      <path class="cls-1" d="M31.71,31.77c.24-.17.37-.32.45-.48-.33.19-.76.28-.45.48Z"/>
      <path class="cls-1" d="M49.28,29.95c.12,0,.23-.02.34-.06-.13,0-.23,0-.34.06Z"/>
      <path class="cls-1" d="M32.39,30.64c-.05.03-.09.06-.14.09.01.19,0,.37-.09.57.25-.14.43-.33.23-.65Z"/>
      <path class="cls-1" d="M30.82,54.66s-.05,0-.08,0c.04.05.06.03.08,0Z"/>
      <path class="cls-1" d="M23.82,53.75s.09.03.14.06c-.02-.05-.05-.07-.14-.06Z"/>
      <path class="cls-1" d="M30.3,36.82c-.03.18.04.04,0,0h0Z"/>
      <path class="cls-1" d="M28.39,37.07c-.03-.05-.08-.1-.18-.14.09.05.15.09.18.14Z"/>
      <path class="cls-1" d="M30.43,28.07h0c-.1,0-.08,0,0,0Z"/>
      <path class="cls-1" d="M30.02,37.01c.07-.05.14-.1.2-.17-.04.02-.11.08-.2.17Z"/>
      <path class="cls-1" d="M30.23,37.04c-.04.05-.06.09-.09.13.06.05.11.04.09-.13Z"/>
      <path class="cls-1" d="M30.36,36.58c-.03.1-.08.18-.14.26.04-.02.07-.03.08-.02.01-.05.03-.12.06-.24Z"/>
      <path class="cls-1" d="M40.8,43.91s-.03,0-.06,0c-.01.25.03.18.06,0Z"/>
      <polygon class="cls-1" points="34.08 11.87 34.08 11.93 34.1 11.92 34.08 11.87"/>
      <path class="cls-1" d="M34.68,11.84c-.13.54-.28.39-.54.05l-.04.03.16.43.59,1.74c-.1-.78-.16-1.53-.17-2.24Z"/>
      <path class="cls-1" d="M55.42,32.07l1.06-.45c.13.75-.76,1.27.52.83-1.21-.31.74-1.45.9-2.06-.36-.17-.75-.26-1.23-.25.02-.11.03-.22.03-.34.09.09.22.1.31.19.13-.74-1.91-.32-2.48-1.04-.17-.28-.17-.53.23-.41l-1.07-.45c-.17-.18.12-.24.3-.06l-1.17-.83.04-.02c-.34,0-.93-.07-1.19-.1-.1-.33.23,0,.3-.16l-.78-.22c.01-.45.71-.31,1.09.07.25-.67.02-.75-.29-.81-.14-.02-.39-.1-.5-.16-.12-.07-.24-.22-.3-.53l.46.16c.27-.78-.19-.8-.28-1.5-.07.27.03,1.6-.6,1.52-.05-.17-.17-.34-.56-.31.31-.37.02-.46-.27-.66l.43-.48c-.41-.1-.59.17-.95.25-.28-.32-.03-.75.16-1.14-.45-.51-.15.91-.84.49-.27-.55-.74-.6-1.5-.73-.16-.42.3-.26.31-.49l-.59.17c-.06-.06.06-.17.13-.22-.35-.04-.43.48-.89.31-.55.46-.07-1.4-1.02-1.15,0-.23.3-.26.43-.48-.94-.1-.76-.14-1.7,0l-.15-.67c0,.63-.76.73-1.4.81-.04.27-.08.5-.07.63l-.77-.2c0-.14.2-.26.46-.39-.07,0-.14.02-.2.03-.05-.35.29-.54.66-.7-.02.15-.04.31-.05.47.38-.19.79-.41,1-.72-.08.03-.19.02-.29-.02.1-.05.19-.1.21-.17.02-.07-.12,0-.32.04l.33-.65-.21.19-.43-.94c-.98.12-2.1.56-3.11.1.54-.23.59-.62,1-1.09-.2.69.81.31,1.15.77-.18-.24.06-.42.18-.46l-1.14-.17c.34-.38.08-.43.02-.75-.25.44-.46.48-.81.3-.32-.16-.66-.45-.93-.48.12-.34.37-.57.89-.04-.11-.58-.48-.51-.79-.36-.32.13-.59.33-.75-.22.12.09.17.2.28.07-.38.07-1-.75-.79-.96l.13.1c-.85-.86-2.71-2.27-2.52-1-.04-.18-.19-1.49-.17-1.7-.22.72-.3,1.57-.23,2.53.08.55.16,1.07.26,1.57-.16-.63-.49-1.55-.79-2.44-.3-.89-.56-1.78-.49-2.6-.14.09-.33.27-.4,1.22.13-.05.71,1.18.67,1.48-.32-.33-.42-.36-.52-.37-.1,0-.19.02-.55,0,.19-.06.77,1.72.64,1.98-.09-.26-.73-1.32-.75-1.62.11.82.24,1.56.4,2.24-.06-.43-.64-1.06-.95-1.12.2.1-.35.93-.37,1.32.12-.08.24-.16.36-.23-.57,1.1.88,2.26.55,3.02-.18-.19-1.16-1.01-1.5-.47.4.61,2.28,1.86,2.44,2.75l-.36.03.16.67c-.7-.63-2.08-2.19-2.57-2.94-.35.22-.4-.04-.53.42-.35.06-.35-.4-.32-.54l-.56.99c.65.18.35,1.03.89,1.18l-.25-1.38c.65.18,1.57,1.3,1.19,2-.32.1-1.08-.54-1.3-.6.18.17.17.86-.01.87l-.23-.44c-.39.33.6.98-.18,1.26-.1.16-1,.23-.63.39.82-.03,3.08.71,3.56,1.09-.07.04-1.01.66-1.44.73-.67.08-1.2-.9-1.77-.83.17.07.33.3.37.39-.21.13-.51-.26-.57.16.62.29-.34.78.48.38.05.45-.28.36-.41.82.47,0,1.27.9,1.32,1.36-.16-.08-.4-.07-.51-.06-.34.77-.78,1.09-1.04,1.82-.18.01-.49.3-.72.05.08.15.26.32.2.55-.71.24.09-.54-.69-.44.36.16.31.77.43,1.17.61.1.37-.71.26-1.11.8.28,1.43,1.14,1.53,2.04-.02.68-.61.08-.53.23-.54,1.1,1.04,1.47.13,2.22-.64.2-1.01-.34-1.41-.38-.02-.57.59-.65.69-1l-.39.33c-.11-.22-.12-.6.09-.72-.57.16-.77,1.91-1.51,2.65.11.22.19.55.44.49l.03-.31c.5-.11.38.73.7.44.15.48.46,1.06.04,1.51l-.61-.1c.17.05.47-.22.34-.44.18.31-1.07.54-.4,1.04l.53-.23c.16.48.61,1.16.26,1.57.65-.01-.03-.13.76-.23-.93,0,.46-1.19-.58-1.03.9-.07.54-.48,1.36-.69-.2-.05-.42.03-.19-.33-.05-.04-.11-.1-.14-.15.01,0,.01-.01.02-.02h-.03s-.03-.02-.01.02c-.12.06-.24.1-.36.1-.37-.35-.13-.97-.29-1.26.17-.2.18.17.43.12l-.23-.44c.43.12.92-.37.98.27l.19-.49c.34-.21.58-.58.49-.89.17-.2-.26-.76,0-.44v-.87s.12.03.12.03c.32-.75-.14-1.83.93-2.43-.02-.3-.05-.61.22-1l.4.05c-.01-.38.72-.87.39-1.14,1.11,0,.78-1.53,1.16-2.05l-.47-.19c.17-.39.17-.82.15-1.39l-.43-.12c-.2-.55.69-1,.89-1.69.15.1.04.26-.1.35,1.23-.46-.08-2,.85-2.41-.12-.14-.05-.19.07-.19,0,0,0,.02.01.03,0,0,.01-.02.02-.03.08,0,.16.02.25.02-.1-.03-.19-.05-.24-.04.01-.06,0-.18-.07-.35l.41.27s0-.01,0-.03c.17.06-.16-.23-.48-.42-.05-.11-.11-.23-.18-.36.33.25.29.14.27.02-.02-.12-.03-.26.29.08-.27-.45-.05-.78-.54-1.95.07.13.12.16.09.24.12-.04.22-.04.14-.53l.36.82c-.12-.49-.22-1.01-.32-1.57.27.36.38.7.55,1.62-.04-.27-.06-.47-.08-.6.07-.37.12-.06.23-.73l.09.59c.09.06.22-.53.34,0,.19.64.46.91.8,1.21.17.15.35.31.49.5.07.09.14.19.19.3.02.05.04.11.06.16l.12.25c.54-1.07.16.81.78.15-.11.26-.07.51-.39.55.71.24.53,1.01,1.39.74-.12.26-.37.21-.42.39.08,0,.33-.04.28.13-.05.17-.23.11-.39.13.58.42,1.18-.18,1.73-.76.04.52.21.6.75.37-.07.28-.08.63-.48.41.17.19.94,1.28,1.36.8-.04.17.24.26.34.25.41.39.41.47.87.77l-.05-.18c.66-.45.46.16.87.38l-.06.05c.43,1.08.51.08.88,1.21l.26-.4c.73-.73.3,1.04,1,1.11v-.35c.48-.07-.2,1.65-.03,1.96,0,.11-.18.04-.29.03.26,1.01.49-.41,1.06-.12-.13.33-.67.57-.38.89,0,.17.4.16.82.21.21.03.42.07.58.16.09.03.13.11.05.26.16-.21.27-.45.55-.48.14.06.08.33.05.5-.03.18-.02.27.5.17-.05.05-.12.08-.19.11.36.02.85.25,1.57.27-.81.18-.71.28-.33.41.09.19.41.61-.75.43l-.31.39-.16-.07c-.34.17-.06.42.13.73-.16,0-.23-.12-.3-.17-.34.11-.46.13-.53.3-.13.22-.16.53-.21,1.09l-.4-.31c.03.36-1.57.39-1.89,1.46-.03-.05-.08-.13-.07-.24-.4,1.16-2.84.74-1.91,2.34l-.22.81c.78-.52.43.67.91.63-.2.32-1.06.24-.79-.14l.11.02c-.52-.8-1.07.53-1.49.04-1.31,1.27-2.96,2.08-4.25,3.21l.64.41-.47.37c-.23-.02-.54-.28-.21-.54-.44-.15-.29.74-.19.86-.81.34-.34-.85-.54-.69l-.22.27h.12c0,.42.19.67-.21.99-.34.11-.43-.22-.54-.16-.03-.04-.08-.03-.16.12l-.59.46.61.22c-.05.43-.54.45.16.7-1.06-.4-2.3,1.62-2.74,1.6-.06.62-.4.93-.85,1.28.19,0,.69.41.27.69-.78-1.11-1.05.18-2-.26.69.23-.92,1.06.1,1.35-.37.2-.36-.35-.8-.37-.37,1.04-1.81,1.2-2.57,2.15.11.14.44.2.42.57l-1.06-.22c-.12.22.53.9-.21.74.15.07.36.17.28.32-.45.19-.84.44-1.2.74-.18.15-.35.31-.52.47l-.25.25-.14.16c-.34.41-.77.94-1.19,1.08-.26-.31-.5-.73-.58-1.23.03.44-.05.43-.16.36.04.13-.12.45-.18.7-.12-.36-.19-.68-.22-.97-.22.25-.29.21-.54.04-.22-.14-.42-.29-.65-.06l.32.09c-.77.37-.5,1.68-1.07,2.45.49-.17.61.3.91.84.27.52.75,1.14,1.27.76.17.36-.21.23-.14.55.3-.29.54-.23,1.04.36l-.05.09c.12.08.23.15.31.21,1.09-1.03,1.74-1.14,3.37-2.3l-.41-.27c.36-.24.54-.21.71-.2-.13-.37-.25-.28-.48-.09-.24.19-.48.37-.56-.09.22.12.54,0,.74-.11.2-.1.4-.27.59-.44.39-.33.78-.64,1.25-.33.34-.31-.47-.31-.13-.62l.29.14-.17-.36c.26-.16.63.01.8.19-.07.03-.11.19-.15.26.52,0,.73-.83.9-.84l-.45.16c.73-1.05,2.12-1.8,2.61-3.06l-.22-.1c.4-.93.71-.32,1.33-1.15v.06c0-.3.13-.57.35-.74-.01.37.7.05.65.49.44-1,.13-.59.05-1.65l.36.17c-.06-.4-.17-.54.14-.96-.09.52.62.2.56.82,1.33-.12.61-1.67,1.77-1.13-.34-1.09-1.06.2-1.01-.14-.4-.09-.22-.84.09-.99.27-.21,1.31.58,1.93-.02-.07.05-.02.12-.08.17.41-.02.22-.69.8-.64-.26-.61.4-.32-.09-.94l-.45.67c.19-.45-.13-1.42.71-1.58.07.16.05.46.02.65.32.03.2-.39.52-.37.49.63-.58.77-.53,1.54.4.09.27-1.03.68-.24-.49-1.04.71-.47.57-1.47l.29.38c.02-.12,0-.41.14-.52l.19.66c-.01-.7.98-.27,1.11-.79-.68.65-.54-.28-1.07-.26.42-1.25,1.33.46,2.13-.58-.08.17-.68.24-.63-.11.25-.1.61-.18.89-.1.57-.66-.43-.27-.36-.73.61.23.15-.46.3-.85l.33.35c.93-.44-.49-.92.41-1.24l.18.75.22-.44.3.47c.09-.64.28-.67.74-.89-.31-.17-.55-.69-.24-.99.41.01.19.45.59-.02.1.32.25.7-.25.55.09.13.1.32.19.45.46.03.64-.49.8-.64-.08.04-.17.1-.25.08l.2-1.1c.23.04.24.22.26.4.1-.16.04-.41.21-.62.21.34.5.62.35,1.01l.33-.9c.16.09.64.05.65.23.5-.15.34-1.34,1-1.54-.03-.08-.03-.18.03-.31.25-.17.55-.25.8-.4.07-.05.11-.06.2-.14.1-.09.19-.18.28-.28.18-.2.33-.44.43-.72.35,0,.73-.03,1.12-.07.3-.38-.1-.32-.42-.34-.33-.02-.58-.12-.19-.66.51-.77.89,0,1.37-.18.02-.26,0-.6.11-.92.12-.32.38-.61,1.11-.89-.06.24-.38.39-.54.6ZM50.8,25.47c.16,0,.56-.07.46.21-.47.33-.39.05-.46-.21ZM42.2,19.82c.18-.06.24.1.25.34-.12-.05-.21-.15-.25-.34ZM30.58,34.85l-.02-.02c.27-.21.17-.14.02.02ZM30.18,35.34c.04.08.11.1.18.1-.1-.08-.06-.21.02-.35-.13,0-.24.04-.2.25ZM37.2,42.81h.17c-.1.3-.13.15-.17,0Z"/>
      <path class="cls-1" d="M43.51,20.05c-.02.09-.07.16-.13.24.09-.03.15-.1.13-.24Z"/>
      <path class="cls-1" d="M51.12,36.37h-.02s.03.06.04.09l-.03-.09Z"/>
      <path class="cls-1" d="M29.44,25.17c.11-.09.21-.13.31-.14-.11-.05-.22-.03-.31.14Z"/>
      <path class="cls-1" d="M29.89,38.63v-.41c-.03.18-.15.21-.25.28.11.03.29.01.25.13Z"/>
      <path class="cls-1" d="M25.96,40.81c.04.07-.03.12,0,.19l.22.06c.07-.23-.05-.45-.22-.25Z"/>
      <path class="cls-1" d="M28.26,38.44c-.39-.11-.34.17-.36.45,0-.02,0-.03.02-.05.51.26.43-.07.35-.4Z"/>
      <path class="cls-1" d="M27.89,38.95c0,.09-.03.17-.07.24.2.11.08-.08.07-.24Z"/>
      <path class="cls-1" d="M30.18,36.16c-.14.09.46.25.28.26.44.31-.3-1.02-.28-.26Z"/>
      <polygon class="cls-1" points="26.93 38.2 27.43 38.28 27.1 38 26.93 38.2"/>
      <path class="cls-1" d="M27.98,36.31l-.27.36c.08.02.11.09.12.17.1-.25.3-.49.15-.53Z"/>
      <path class="cls-1" d="M27.83,36.83c-.06.13-.09.26-.04.36.02-.07.06-.23.04-.36Z"/>
      <polygon class="cls-1" points="26.98 37.59 27.12 37.51 27.26 37.23 26.98 37.59"/>
      <path class="cls-1" d="M29.62,31.95l.02-.49c-.15-.1-.29-.02-.28.17.08.15.08.33.26.32Z"/>
      <path class="cls-1" d="M27.85,32.84c.14-.09.25-.06.43-.07l-.58-.22.15.29Z"/>
      <path class="cls-1" d="M28.18,31.49c-.15-.1-.24-.81-.4-.23.15.1.12.6.4.23Z"/>
      <polygon class="cls-1" points="31.29 25.04 31.25 25.16 32.22 25.48 31.29 25.04"/>
      <path class="cls-1" d="M31.37,17.47c-.53.76.46.58-.07,1.18.15.31.43-.49.54-.17-.05-.62.17-.82-.47-1.01Z"/>
      <path class="cls-1" d="M31.84,18.49c0,.1.02.21.05.32,0-.17-.03-.26-.05-.32Z"/>
      <polygon class="cls-1" points="23.49 52.84 23.32 52.45 23.31 52.87 23.49 52.84"/>
      <path class="cls-1" d="M22.49,53.05l.31-.58-.52.35c.08.02.24.07.21.23Z"/>
      <path class="cls-1" d="M50.87,23.83l-.12.1c-.07.17,0,.23.1.36l.02-.46Z"/>
      <path class="cls-1" d="M56.13,28.84l-.1-.1c-.17.11-.34.22-.52.33l.62-.23Z"/>
      <path class="cls-1" d="M55.16,34.02c.27-.21.42-.53.68-.74-.43.54-1.48.48-.68.74Z"/>
    </g>
  </g>
  <g>
    <polygon class="cls-2" points="30.45 64.98 57.26 43.53 60.32 58.85 31.21 68.04 30.45 64.98"/>
    <g>
      <path class="cls-1" d="M28.11,65.66c0-.13-.39.02-.47.02.14.18.57-.05.47-.02Z"/>
      <polygon class="cls-1" points="29.53 67.41 29.35 67.41 29.83 67.6 29.53 67.41"/>
      <path class="cls-1" d="M32.51,69.2c-.33-.54-.56.09-.87.18l-1.46.42-.32-1.42s0-.1.01-.15l.14-.09h-.59c.05.09.12.2.2.31l1.32,1.81.77-.64c.27-.23.55-.49.8-.41Z"/>
      <path class="cls-1" d="M33.94,70.36c-.14-.25.14-.29-.25-.01.03.02.04.04.06.05.04-.02.09-.03.19-.04Z"/>
      <path class="cls-1" d="M33.75,70.4c-.19.08.2.18,0,0h0Z"/>
      <path class="cls-1" d="M34.59,69.97l-.18.32c.1.14.34.1.29.24.22-.21.12-.35-.11-.56Z"/>
      <path class="cls-1" d="M34.67,69.4l-.1.14c.04.06.09.07.1-.14Z"/>
      <path class="cls-1" d="M34.36,69.84l.21-.3c-.07-.1-.14-.32-.1.12-.04-.21-.03,0-.11.18Z"/>
      <path class="cls-1" d="M34.17,69.79c-.19-.1-.4-.14-.22-.45-.45.25-.23.7.22.45Z"/>
      <path class="cls-1" d="M32.38,68.46l-.25-.14-.09.28c.05-.14.42.07.34-.14Z"/>
      <path class="cls-1" d="M36.27,69.83c-.03-.15-.21-.36-.28-.54l-.13.23c.13.07.34.1.42.31Z"/>
      <path class="cls-1" d="M35.98,69.29l.2-.34c-.26.05-.27.18-.2.34Z"/>
      <polygon class="cls-1" points="34.48 68.63 34.18 69.3 34.56 68.6 34.48 68.63"/>
      <polygon class="cls-1" points="37.34 69.51 37.29 69.9 37.41 69.3 37.34 69.51"/>
      <path class="cls-1" d="M38.03,69.23c-.03.31.31.42.24.63.18-.11.26-.4.34-.66-.12.17-.3.19-.58.03Z"/>
      <path class="cls-1" d="M38.76,68.81c-.06.09-.1.24-.15.39.06-.09.12-.21.15-.39Z"/>
      <path class="cls-1" d="M36.68,68.88c.05.08.16.3.35.34l-.24-.37s-.07.02-.11.03Z"/>
      <path class="cls-1" d="M36.79,68.84h0c.12-.01.21-.03.24-.04-.03,0-.11.02-.25.04Z"/>
      <path class="cls-1" d="M36.65,68.88h.03s-.03-.06-.03,0Z"/>
      <path class="cls-1" d="M35.32,68.77c.09-.28.36-.63-.08-.87-.03.32.22.45.08.87Z"/>
      <path class="cls-1" d="M36.36,68.42h-.33c.04.11.14.25.1.38l.23-.38Z"/>
      <polygon class="cls-1" points="36.46 68.24 36.36 68.42 36.48 68.42 36.46 68.24"/>
      <path class="cls-1" d="M38.13,68.59c.07-.22.21-.28.36-.36-.19-.03-.38-.01-.55.04.02.14.02.39.19.32Z"/>
      <path class="cls-1" d="M37.47,68.67l.02-.03s-.05-.04-.02.03Z"/>
      <path class="cls-1" d="M40.04,67.74s-.03-.04-.05-.07l.02.07h.03Z"/>
      <path class="cls-1" d="M37.89,68.2c-.15-.04-.2.09-.23.23.08-.07.17-.13.28-.17,0-.06-.02-.1-.05-.07Z"/>
      <path class="cls-1" d="M39.13,68.48c-.09-.06-.19-.11-.29-.15.11.11.3.27.29.15Z"/>
      <path class="cls-1" d="M37.57,68.74v.02c.06.07.04.03,0-.02Z"/>
      <path class="cls-1" d="M37.57,68.74c.05-.08.07-.2.09-.3-.07.06-.13.12-.17.2.02.02.05.06.08.1Z"/>
      <path class="cls-1" d="M39.69,64.98c.1.38-.13.84-.54.53-.19.37.38,1.56.85,2.17-.04-.17-.09-.32.13-.64-.17-.17-.8-.28-.66-.7.33-.32.36.03.61.17-.31-.42.28-.84-.03-1.51l-.26.35c-.04-.11.03-.32-.1-.38Z"/>
      <path class="cls-1" d="M39.43,67.81l-.11.09c.16.02.3.14.58.38.14-.25.14-.4.11-.53l-.61.13.02-.07Z"/>
      <path class="cls-1" d="M38.78,68.07c-.04-.44.2-.71-.12-1.1-.34.14-.14.42-.29.67.54-.28-.09.28.39.38-.09.11-.18.16-.27.21.12.02.24.05.35.09l-.02-.02h0s0,0,0,0c-.04-.04-.06-.07-.02-.05,0,0,0-.01,0-.01-.01-.06-.02-.11-.02-.16.19.03.06.1.02.16v.06s.02,0,.02,0l.5-.41c-.14-.02-.29.04-.54.17Z"/>
      <path class="cls-1" d="M35.26,66.92s.04.06.05.09c.02-.06.02-.1-.05-.09Z"/>
      <path class="cls-1" d="M35.58,67.09c-.02.07,0,.25-.15.25-.16-.09-.06-.2-.11-.33-.05.13-.19.38.13.5l.02-.07c.27.07.73.49.71.56-.18-.35-.33-.59-.59-.91Z"/>
      <path class="cls-1" d="M37.16,67.47l.41-.35-.35-.28.08.21c-.3,0-.16.25-.14.42Z"/>
      <polygon class="cls-1" points="40.16 67.93 40.24 68.38 40.32 67.69 40.16 67.93"/>
      <polygon class="cls-1" points="40.76 67.68 40.86 68.07 40.95 67.79 40.76 67.68"/>
      <path class="cls-1" d="M55.72,47.96l-.09.14s.06-.09.09-.14Z"/>
      <path class="cls-1" d="M55.78,48.4l.14-.27c-.08.13-.14.24-.14.27Z"/>
      <path class="cls-1" d="M55.92,62.85c.31.29.71.76.56.35l-.19-.39c-.12.12-.24.11-.36.05Z"/>
      <path class="cls-1" d="M59.14,53.47l-.12.09c.16.02.3.04.44.06-.1-.05-.21-.09-.32-.15Z"/>
      <path class="cls-1" d="M57.35,53.68l.22-.33c-.08.08-.16.19-.22.33Z"/>
      <path class="cls-1" d="M54.27,49.55c.05.15.11.29.17.43.03-.03-.08-.22-.17-.43Z"/>
      <path class="cls-1" d="M47.04,65.53c.23.11.39.13.52.11-.29-.17-.57-.47-.52-.11Z"/>
      <path class="cls-1" d="M58.97,40.72c-.08-.01-.16.08-.22.24.08.01.15-.04.22-.24Z"/>
      <path class="cls-1" d="M48.07,65.48s-.08-.04-.12-.07c-.11.11-.22.21-.38.23.21.13.43.18.51-.16Z"/>
      <path class="cls-1" d="M38.16,61.97s-.04,0-.07-.01c.03.05.05.04.07.01Z"/>
      <path class="cls-1" d="M30.65,62.38c.03-.06.11-.12.18-.18-.05,0-.11.05-.18.18Z"/>
      <path class="cls-1" d="M43.31,67.08c-.12.07,0,.05,0,0h0Z"/>
      <path class="cls-1" d="M42.15,65.64c.01-.06.02-.12-.01-.22.02.1.02.17.01.22Z"/>
      <path class="cls-1" d="M48.56,62.5h.01c-.06-.07-.05-.06-.01,0Z"/>
      <path class="cls-1" d="M43.05,66.95c.07.04.14.06.21.07-.04-.02-.1-.05-.21-.07Z"/>
      <path class="cls-1" d="M43.14,67.14c-.05,0-.09,0-.13,0,0,.07.03.11.13,0Z"/>
      <path class="cls-1" d="M43.48,67c-.07.03-.15.03-.23.02.03.02.05.04.05.06.04-.02.09-.04.18-.08Z"/>
      <path class="cls-1" d="M46.23,54.04s-.03,0-.05-.01c0,.23.03.17.05.01Z"/>
      <polygon class="cls-1" points="57.16 57.73 57.17 57.75 57.19 57.76 57.16 57.73"/>
      <path class="cls-1" d="M57.12,57.41c.36.45.22.43.07.35.32.34.66.67,1.01.99-.32-.46-.68-.91-1.08-1.35Z"/>
      <path class="cls-1" d="M55.02,48.53c0,.16,0,.33-.02.51-.25,1.02-.17.68-.28,1.46.13-.98.2-1.07.26-1.17.06-.1.12-.19.47-1.34l-.08.43s-.05.13-.06.12c-.23.92.43-1.17.69-1.57.02,0,.02.02.02.09-.05.29-.17.67-.29.89.09-.14.18-.26.27-.37,0,.1-.18.46-.17.37.04.03.09.07.13.12l-.03.06c.16-.27.43-.61.55-.73-.13.36-.12.14-.24.4.1-.08.19-.16.29-.22-.26.51-.55.78-.53.62-.49.98-.43.86-.3.71.13-.17.32-.33.03.24-.05.02-.11.05-.16.09-.6.94-.37.67-.76,1.16.1-.12.35-.42.6-.78.25-.35.5-.75.65-.84-.07.16-.1.25.14.09-.4.45-.29.41-.25.49l-.55.5c.17-.08.46-.32.72-.46-.03.18-.47.5-.85.74-.04.07.14-.05.34-.19.2-.14.43-.32.51-.23-.19.3.06.21.49.44-.16.34-.39.03-.55.17l.55.16c0,.07-.16.08-.24.08.24.18.63-.11.87.21.71-.04-.87.92,0,1.19-.16.14-.39.03-.63.11.63.49.48.43,1.26.78l-.33.5c.41-.4,1.05-.12,1.57.13.21-.15.39-.28.47-.37l.44.47c-.09.09-.32.07-.6.04.06.03.12.05.17.07-.19.24-.58.21-.95.14.11-.09.23-.18.35-.27-.41-.06-.85-.1-1.22,0,.08.02.16.08.2.14-.11-.01-.21-.02-.27.01-.06.03.09.06.27.12l-.67.26.28-.03-.3.8c.4.18.88.33,1.32.53.44.21.82.38,1.05.8-.57-.18-.87-.02-1.51-.03.32-.07.23-.19.07-.28-.08-.06-.17-.07-.25-.15-.08-.09-.13-.19-.12-.3-.02.23-.32.24-.44.21.26.26.46.26.69.42-.51.02-.37.11-.56.19,1.01-.06.75.35,1.12.62-.36-.08-.73-.2-.69-.38-.37.05-.06.14.29.31.34.15.72.37.39.39-.02-.06.03-.08-.16-.16.35.25.17.51-.18.27l-.02-.06c-.02.11,0,.27.08.48-.19.14-.26.42.15.85-.09-.09-.86-.8-1.01-.94.7.78,1.15,1.64,1.34,2.58-.18-.33-.66-.82-1.04-1.31-.38-.49-.68-.95-.72-1.16-.15-.06-.28-.15-.27.12.09.08.76.87.7.96-.69-.63-.44-.32-.98-.87.14.12.53,1.2.31,1.23-.03-.17-.39-1.06-.39-1.19.07.37-.06.81-.12,1.22.08-.24-.26-.92-.48-1.18.12.19-.49.13-.6.29l.31.17c-.68.04-.15,1.7-.79,1.85,0-.25-.24-1.42-.6-1.46.03.6.19,2.85-.23,3.44l-.21-.28-.31.49c0-.91.19-2.88.38-3.69-.31-.17-.18-.35-.53-.21-.22-.25.05-.51.15-.56l-.88.07c.24.63-.42.84-.22,1.37l.68-.95c.24.63.06,1.98-.56,2.05-.23-.21-.25-1.18-.33-1.39,0,.24-.42.6-.52.46l.14-.42c-.4-.14-.26,1.02-.84.53-.15,0-.66-.7-.57-.31.45.66,1.21,2.91,1.23,3.51-.06-.03-.93-.48-1.19-.79-.4-.5-.1-1.47-.44-1.91.05.18,0,.43-.04.52-.19-.1-.11-.56-.39-.38.15.67-.64.14.03.6-.24.28-.36-.03-.7.11.24.38.14,1.53-.11,1.81-.03-.17-.17-.36-.23-.45-.63.14-1.06-.06-1.63.12-.1-.14-.44-.24-.41-.56-.05.14-.05.39-.22.46-.52-.45.37-.21-.11-.8.1.38-.29.67-.47.98.26.56.62-.07.79-.39.26.8.08,1.79-.4,2.35-.41.35-.37-.45-.42-.31-.94.14-.32,1.65-1.24,1.3-.46-.42-.34-1.02-.52-1.37.33-.32.7.14.95.03l-.4-.14c.07-.21.29-.42.48-.32-.39-.38-1.54.39-2.36.18-.07.21-.22.46-.06.63l.2-.14c.33.35-.23.7.11.81-.2.38-.39.94-.87.84l-.26-.56c.06.17.38.26.44.05-.09.31-.88-.59-.83.23l.42.31c-.2.39-.37,1.12-.79,1.05.35.52.06-.09.54.5-.49-.77.95-.26.31-1.03.51.7.57.19,1.13.75-.07-.19-.24-.33.1-.33,0-.06,0-.14.01-.19.01,0,.02,0,.03,0l-.02-.02s0-.04,0,0c-.1-.06-.19-.14-.25-.24.01-.49.5-.63.6-.91.21.03,0,.25.16.42l.14-.42c.16.42.71.56.36.95l.39-.1c.3.17.65.17.78-.08.21.04.31-.62.26-.23l.52-.46.04.11c.61-.13,1.01-1.1,1.93-.54.17-.17.33-.37.71-.35l.18.35c.22-.21.89.13.88-.3.59.91,1.32-.18,1.83-.14l-.14-.49c.32-.07.58-.3.9-.62l-.16-.42c.22-.46.96.03,1.47-.18.02.17-.13.17-.26.11.94.77,1.11-1.12,1.91-.6.09-.2.21-.18.35-.1-.01,0-.02.02-.03.03.02,0,.04,0,.06-.01.09.05.18.12.27.16-.09-.08-.18-.15-.24-.18.11-.04.26-.15.39-.31l.21.44s.02-.01.03-.03c.21.12.06-.26-.13-.58.06-.1.11-.22.13-.35.36.7.35-.39.78.35,0-.21.18-.35.34-.54.06-.09.18-.21.26-.36.07-.15.1-.31.05-.52.05.1.13.13.02.17.27.02.58.02.68-.26l.43.51c.05-.3.07-.6.06-.88.54.22.88.34.83.85.2-.44.29-.54.39-.65.09-.1.19-.2.18-.57l.33.31c.25-.09.08-.6.55-.4.29.08.59.09.91.05.03-.39-.12-1.06-.23-1.72-.11-.67-.17-1.35-.02-1.97-.57.14-.47-.03-.34-.25.12-.22.26-.54-.19-.5.26-.12.36-.38.65-.15-.05-.1-.09-.2-.12-.29-.02-.07-.03-.12-.03-.18,0-.11.01-.21.02-.31.01-.19-.03-.34-.44-.45.26-.12.42.03.57-.05-.07-.03-.27-.12-.12-.21.15-.09.24.03.38.09-.15-.53-1-.42-1.79-.31.32-.35.24-.48-.32-.57.24-.15.47-.36.63-.04,0-.2.14-1.24-.49-1.13.15-.09,0-.27-.09-.31-.05-.43,0-.48-.14-.89l-.08.14c-.79-.01-.24-.31-.4-.63h.08c.2-.45.11-.52.04-.59-.07-.06-.14-.15.07-.75l-.45.2c-.5.11-.39-.11-.23-.47.17-.35.38-.87.14-1.05l-.21.36c-.19-.05.09-.44.41-.96.32-.5.67-1.13.69-1.38.06-.16.15.02.23.1.31-1.56-.57.35-.84-.24.26-.45.76-.58.71-1.18.09-.27-.22-.41-.49-.59-.27-.19-.5-.4-.32-1.16-.17.5-.34.95-.55.89-.08-.17.04-.83.08-1.4.05-.56.02-1.03-.31-.59.04-.18.08-.32.12-.42-.13-.02-.28-.25-.45-.28-.24.33-.46.67-.63,1.03.37-1.35-.26-.59-.76.08-.51.68-.9,1.3-.71.17l-.95.86.04-.23c-.61.36-.83,1-.99,1.6-.14-.02-.06-.27-.05-.38-.87.3-1.06.54-1.44,1.81l-.26-.42c-.04.22-.41.26-.89.45-.12.05-.25.1-.37.16-.13.07-.26.14-.32.19-.16.11-.29.27-.34.49-.03-.05-.08-.13-.08-.22-.29.97-2.42.17-1.53,1.77l-.15.69c.64-.34.41.68.82.73-.15.26-.91.03-.69-.26l.1.04c-.49-.81-.9.29-1.28-.22-1.06.91-2.46,1.36-3.51,2.15l.57.48-.38.25c-.2-.06-.48-.35-.21-.53-.39-.22-.21.61-.12.74-.68.17-.34-.82-.5-.71l-.17.21.1.03c.02.37.2.63-.13.84-.29.04-.38-.27-.48-.23-.03-.04-.07-.04-.13.08l-.49.31.54.31c-.02.38-.44.32.17.66-.94-.54-1.91,1.06-2.29.97-.02.55-.3.77-.67,1,.16.03.62.49.27.67-.73-1.13-.9-.02-1.74-.58.61.33-.74.79.16,1.24-.31.11-.33-.38-.71-.48-.26.87-1.5.77-2.12,1.48.1.15.39.26.4.59l-.93-.38c-.09.18.5.9-.14.63.13.09.32.22.26.34-1.95.46-2.46,2.87-4.9,2.76.41.11.3.24.16.37.15-.01.27.34.44.51l-1.02-.03c.3.6-.62.55-.29,1.1l.12-.24c.21.79,1.39,1.01,1.95,1.79-.25-.89,1.53.38,1.24-.94.22.07.1.31.3.44-.14-.42-.05-.6.33-.66l.03.1c.68-.67,1.25-.61,2.26-1.07l-.36-.32c.22-.09.35,0,.51.02-.24-.73-.53.37-.84-.4.84.56,1.27-1,2.12-.27.28-.22-.42-.36-.14-.58l.26.17-.17-.35c.22-.1.54.12.71.31-.06.01-.08.15-.11.21.45.08.59-.62.74-.6l-.38.07c.58-.82,1.74-1.25,2.09-2.3l-.19-.13c.3-.77.6-.16,1.09-.8v.06c0-.27.09-.49.27-.6,0,.33.61.17.59.55.33-.83.08-.51-.04-1.48l.32.22c-.07-.37-.17-.52.07-.84-.05.45.55.29.53.84,1.15.12.44-1.4,1.47-.71-.35-1.04-.91,0-.88-.31-.35-.15-.24-.79.03-.87.22-.15,1.17.75,1.67.32-.05.04,0,.1-.06.14.36.05.16-.58.66-.43-.26-.59.33-.22-.13-.87l-.36.52c.14-.38-.19-1.3.53-1.3.07.15.07.42.05.58.27.08.15-.32.43-.24.46.65-.47.59-.37,1.29.35.15.18-.88.58-.1-.47-1.02.59-.3.42-1.23l.27.39c0-.1-.02-.37.09-.44l.2.63c-.05-.64.83-.08.92-.52-.56.46-.48-.34-.94-.42.3-1.05,1.18.65,1.82-.15-.06.14-.58.1-.55-.21.21-.04.52-.06.77.06.46-.49-.38-.32-.35-.72.54.31.11-.39.22-.71l.3.38c.78-.23-.47-.91.29-1.04l.19.7.17-.36.29.47c.05-.56.21-.55.6-.67-.28-.21-.51-.71-.26-.94.36.08.19.44.51.09.1.3.25.67-.19.45.08.14.11.3.19.44.4.1.53-.33.66-.44-.06.03-.14.06-.22.03l.12-.95c.2.07.22.24.24.41.08-.13.01-.36.15-.52.2.34.47.65.36.97l.24-.75c.14.11.56.16.58.32.53-.13-.03-.95.27-.8-.03-.08-.05-.15-.04-.23.18-.03.33.46.37-.26.05.26.09.53.12.81.02-.12,0-.39-.02-.67-.02-.28-.07-.57.06-.83.18-.43.04.74.07.97.04-.49.37-1.67.37-.94-.08.23-.08.1-.14.21ZM56.07,48.76c-.09.06-.35.34-.13-.01.45-.58.25-.22.13.01ZM58.39,54.4c-.17-.04-.12-.17.04-.33.06.08.06.19-.04.33ZM44.62,66.25s0-.02,0-.03c.27.11.17.07,0,.03ZM44.12,66.19c-.02.08,0,.14.04.2,0-.13.09-.17.21-.17-.07-.11-.15-.18-.25-.03ZM43.05,52.42l.15.04c-.07.24-.11.1-.15-.04Z"/>
      <path class="cls-1" d="M57.56,53.66c.07-.04.16-.07.25-.09-.09-.02-.18,0-.25.09Z"/>
      <polygon class="cls-1" points="54.24 49.47 54.23 49.47 54.27 49.55 54.24 49.47"/>
      <path class="cls-1" d="M49.75,60.12c.11.04.19.11.25.18-.03-.11-.1-.2-.25-.18Z"/>
      <path class="cls-1" d="M42.02,67.72l.25-.21c-.13.07-.21-.02-.3-.07.04.11.14.24.06.28Z"/>
      <path class="cls-1" d="M38.65,65.65c-.02.07-.09.03-.11.1l.08.21c.17-.07.24-.28.03-.31Z"/>
      <path class="cls-1" d="M41.27,66.27c-.14-.38-.28-.19-.46-.06.01,0,.02-.01.04-.01.11.56.27.31.42.07Z"/>
      <path class="cls-1" d="M40.77,66.24c-.06.04-.11.07-.18.07.05.22.09.02.18-.07Z"/>
      <path class="cls-1" d="M43.64,66.63c-.13-.07.1.51,0,.37.05.53.44-.79,0-.37Z"/>
      <polygon class="cls-1" points="40.71 65.05 40.93 65.5 40.92 65.08 40.71 65.05"/>
      <path class="cls-1" d="M42.39,64.9l-.36-.03c.03.08,0,.14-.03.19.2-.05.45-.02.39-.16Z"/>
      <path class="cls-1" d="M41.99,65.06c-.1.02-.2.06-.23.16.05-.02.17-.08.23-.16Z"/>
      <polygon class="cls-1" points="41.1 64.76 41.22 64.83 41.46 64.8 41.1 64.76"/>
      <path class="cls-1" d="M45.83,63.91l.3-.25c-.02-.17-.14-.25-.25-.14-.05.14-.16.24-.05.39Z"/>
      <path class="cls-1" d="M44.37,62.94c.13.07.17.17.27.31l-.18-.6-.09.28Z"/>
      <path class="cls-1" d="M45.34,62.48c-.02-.18.35-.63-.07-.45.02.17-.29.42.07.45Z"/>
      <polygon class="cls-1" points="50.8 61.58 50.72 61.61 51.04 62.58 50.8 61.58"/>
      <path class="cls-1" d="M54.68,57.8c-.48-.1.09.63-.37.46-.02.26.38.14.34.37.17-.32.35-.22.03-.83Z"/>
      <path class="cls-1" d="M54.65,58.63c-.03.05-.06.11-.08.19.05-.08.07-.14.08-.19Z"/>
      <polygon class="cls-1" points="29.52 62.59 29.17 62.59 29.52 62.75 29.52 62.59"/>
      <path class="cls-1" d="M29.57,63.51l-.46-.47.24.56c.03-.06.09-.18.22-.1Z"/>
      <path class="cls-1" d="M55.03,50.2l.13-.13c.14-.15.15-.17.17-.22-.1.12-.2.24-.3.35Z"/>
      <polygon class="cls-1" points="55.28 48.97 55.27 49.01 55.54 48.25 55.64 47.94 55.41 48.59 55.28 48.97"/>
      <path class="cls-1" d="M54.72,50.37s.01-.15.02-.12c0,.14,0-.83-.02.12Z"/>
    </g>
  </g>
  <g>
    <polygon class="cls-2" points="9.86 50.41 14.45 50.54 20.24 8.56 2.02 2.68 9.86 50.41"/>
    <g>
      <path class="cls-1" d="M12.24,49.89c0,.17.39.04.47.06-.14-.26-.58-.03-.47-.06Z"/>
      <polygon class="cls-1" points="10.85 47.29 11.03 47.31 10.55 46.97 10.85 47.29"/>
      <path class="cls-1" d="M10.44,44.71c-.66.36.27.91.09,1.41l-.15.1.6.11c-.18-.54-.68-1.21-.54-1.63Z"/>
      <path class="cls-1" d="M11.73,43.09c-.26.13-.28-.26-.03.33.02-.04.04-.05.06-.07-.01-.05-.03-.13-.03-.26Z"/>
      <path class="cls-1" d="M11.76,43.35c.06.27.2-.22,0,0h0Z"/>
      <path class="cls-1" d="M11.4,42.13l.3.32c.15-.1.13-.43.27-.33-.19-.34-.34-.24-.57,0Z"/>
      <path class="cls-1" d="M10.83,41.87l.13.17c.06-.04.08-.1-.13-.17Z"/>
      <path class="cls-1" d="M11.24,42.4l-.28-.36c-.11.07-.33.11.11.17-.21,0,0,.05.17.19Z"/>
      <path class="cls-1" d="M11.17,42.64c-.12.23-.17.5-.48.18.21.67.69.49.48-.18Z"/>
      <path class="cls-1" d="M9.69,44.7l-.16.3.27.19c-.14-.1.11-.55-.11-.49Z"/>
      <path class="cls-1" d="M11.4,39.84c-.15,0-.38.19-.57.24l.22.24c.08-.15.13-.42.35-.48Z"/>
      <path class="cls-1" d="M10.83,40.09l-.32-.35c.03.36.16.4.32.35Z"/>
      <polygon class="cls-1" points="10.03 41.94 10.68 42.5 10.01 41.81 10.03 41.94"/>
      <polygon class="cls-1" points="11.17 38.33 11.55 38.5 10.96 38.19 11.17 38.33"/>
      <path class="cls-1" d="M10.94,37.34c.31.12.45-.31.65-.16-.1-.26-.38-.45-.64-.63.16.2.17.44-.02.79Z"/>
      <path class="cls-1" d="M10.58,36.26c.09.1.23.19.38.3-.09-.11-.2-.21-.38-.3Z"/>
      <path class="cls-1" d="M10.47,39.05c.09-.05.31-.14.38-.38l-.4.22s.01.1.02.16Z"/>
      <path class="cls-1" d="M10.44,38.9h.01c-.02-.18-.03-.3-.03-.35,0,.04,0,.15.02.35Z"/>
      <path class="cls-1" d="M10.48,39.09v-.04s-.06.03,0,.04Z"/>
      <path class="cls-1" d="M10.25,40.84c-.27-.19-.61-.64-.89-.11.32.12.48-.18.89.11Z"/>
      <path class="cls-1" d="M9.98,39.37l-.03.44c.11-.03.26-.13.4-.03l-.37-.4Z"/>
      <polygon class="cls-1" points="9.81 39.18 9.98 39.37 9.99 39.21 9.81 39.18"/>
      <path class="cls-1" d="M10.3,37.04c-.21-.15-.26-.35-.33-.57-.04.25-.05.51,0,.74.14.01.39.08.34-.18Z"/>
      <path class="cls-1" d="M10.33,37.95l-.03-.04s-.04.05.03.04Z"/>
      <polygon class="cls-1" points="9.62 34.27 9.55 34.32 9.62 34.31 9.62 34.27"/>
      <path class="cls-1" d="M9.9,37.27c-.05.19.07.28.22.37-.06-.13-.12-.27-.14-.42-.06,0-.1,0-.07.05Z"/>
      <path class="cls-1" d="M10.28,35.67c-.07.11-.13.23-.18.35.12-.11.3-.34.18-.35Z"/>
      <path class="cls-1" d="M10.41,37.83s.02.01.02.02c.08-.07.04-.06-.02-.02Z"/>
      <path class="cls-1" d="M10.41,37.83c-.08-.08-.19-.14-.3-.2.05.1.11.2.19.28.03-.03.07-.06.11-.08Z"/>
      <path class="cls-1" d="M6.8,34.05c.4-.03.84.38.48.86.36.35,1.6-.12,2.26-.59-.17.02-.33.04-.63-.34-.19.18-.35,1-.76.71-.29-.52.06-.47.23-.77-.45.31-.82-.58-1.52-.34l.33.44c-.11.03-.32-.12-.4.03Z"/>
      <path class="cls-1" d="M9.63,35.11l.08.16c.04-.21.17-.37.43-.68-.24-.25-.39-.29-.53-.29l.08.85-.07-.05Z"/>
      <path class="cls-1" d="M9.84,36.04c-.45-.06-.7-.44-1.11-.12.11.5.41.29.65.56-.24-.79.28.19.42-.43.1.15.14.29.18.42.03-.15.07-.3.13-.45l-.02.02h0s0,0,0,0c-.05.04-.08.06-.05.02,0,0-.01-.02-.01-.02-.06,0-.11,0-.17-.01.05-.25.1-.05.17.01h.06s0,0,0,0l-.37-.77c-.03.18.02.39.13.77Z"/>
      <path class="cls-1" d="M8.37,40.45s.06-.04.09-.04c-.06-.04-.1-.06-.09.04Z"/>
      <path class="cls-1" d="M8.57,40.08c.07.05.25.07.23.27-.1.19-.2.03-.34.06.13.1.37.35.52-.04l-.07-.05c.09-.35.55-.86.62-.81-.37.16-.63.29-.97.56Z"/>
      <path class="cls-1" d="M9.09,38.05l-.32-.64-.31.4.22-.05c-.02.4.23.27.41.29Z"/>
      <polygon class="cls-1" points="9.81 34.16 10.28 34.17 9.58 33.89 9.81 34.16"/>
      <polygon class="cls-1" points="9.62 33.29 10.01 33.26 9.74 33.07 9.62 33.29"/>
      <path class="cls-1" d="M22.05,6.65l.42.02c-.18-.02-.32-.03-.42-.02Z"/>
      <path class="cls-1" d="M19.84,5.91l-.17.15c.17-.06.26-.11.17-.15Z"/>
      <path class="cls-1" d="M6.04,11.8c.32-.35.83-.76.4-.66l-.41.16c.11.19.09.35.02.5Z"/>
      <path class="cls-1" d="M7.04,4.2c-.03-.05-.05-.11-.08-.16-.08.13-.14.26-.19.37.07-.07.17-.14.27-.21Z"/>
      <path class="cls-1" d="M7.41,2.43l.49.45c-.1-.13-.25-.28-.49-.45Z"/>
      <path class="cls-1" d="M22.04,16.28l.41.29c.05-.36-.19-.23-.41-.29Z"/>
      <path class="cls-1" d="M7.99,24.35c.13-.28.16-.49.16-.66-.2.34-.53.64-.16.66Z"/>
      <path class="cls-1" d="M17.34,9.97c.11-.05.22-.11.3-.18-.12.04-.22.09-.3.18Z"/>
      <path class="cls-1" d="M8.02,22.97c-.04.05-.05.1-.08.15.1.17.19.34.2.57.15-.25.22-.52-.12-.72Z"/>
      <path class="cls-1" d="M17.76,44.72s-.03.04-.06.06c.06.01.06-.01.06-.06Z"/>
      <path class="cls-1" d="M11.45,48.56s.12-.02.2-.03c-.05-.03-.11-.03-.2.03Z"/>
      <path class="cls-1" d="M9.23,29.74c.06.18.05.02,0,0h0Z"/>
      <path class="cls-1" d="M7.68,30.92c-.05-.03-.12-.05-.22-.04.11,0,.18.01.22.04Z"/>
      <path class="cls-1" d="M5.06,21.56v-.02c-.08.07-.06.06,0,.02Z"/>
      <path class="cls-1" d="M9.08,30.05c.04-.08.07-.17.09-.26-.03.04-.06.12-.09.26Z"/>
      <path class="cls-1" d="M9.27,29.98c0,.07-.01.12-.01.17.08.01.12-.02.01-.17Z"/>
      <path class="cls-1" d="M9.16,29.48c.02.11.02.21,0,.31.02-.04.04-.06.06-.05-.01-.05-.03-.13-.07-.25Z"/>
      <path class="cls-1" d="M18.71,29.3s-.03.02-.05.03c.15.21.14.13.05-.03Z"/>
      <path class="cls-1" d="M.67,6.89s.02.02.03.04v-.04s-.03,0-.03,0Z"/>
      <path class="cls-1" d="M.15,5.75c.66.67.62.84.55,1.15.42-.01.85,0,1.27.04-.6-.33-1.21-.73-1.83-1.19Z"/>
      <path class="cls-1" d="M22.34,11.64c.17-.25.33-.52.5-.8.51.98.17,1.84.84,1.02-.67-.13-.59-.95-.51-1.77.08-.82.16-1.64-.56-1.4l.38-.64c-.03.16.05.14.01.3.74-1.2-.54-.51-.64-1.11-.13-.02-.25-.05-.37-.11-.28-.2-.38-.44.06-.47l-1.21-.04c-.24-.1.01-.27.26-.16l-1.47-.36.03-.03c-.33.12-.93.27-1.18.34-.23-.28.23-.08.23-.26l-.84.08c-.18-.43.55-.55,1.07-.33-.05-1.44-1.05.02-1.65-1.01h.51c-.06-.84-.51-.69-.88-1.32.05.28.67,1.49.04,1.64-.12-.15-.3-.26-.67-.09.15-.46-.17-.44-.53-.52l.22-.6c-.44.05-.51.37-.82.58-.4-.2-.34-.7-.31-1.13-.64-.31.22.91-.61.76-.49-.41-.96-.29-1.75-.15-.33-.34.19-.35.1-.57l-.51.37c-.08-.04,0-.18.03-.25-.35.09-.22.6-.74.62-.34.63-.63-1.29-1.45-.71-.09-.22.19-.35.22-.6-.94.25-.79.15-1.65.61-.13-.19-.39-.42-.6-.64.45.65-.42.97-.87,1.31.12.28.23.52.28.65-.23.05-.44.1-.62.16-.07-.13-.04-.35.07-.6-.05.04-.09.08-.12.12-.25-.33-.19-.7.02-1.01.11.17.2.34.29.51.19-.35.46-.71.45-1.11-.07.05-.2.08-.33.07.07-.09.11-.17.09-.25-.03-.08-.15.03-.3.15-.07-.27-.15-.55-.25-.83l-.05.28c-.46-.3-.96-.62-1.49-.95-.86.48-.98,1.55-1.77,1.6-.18-.61-.68-1.12-1.22-1.94.49.5.69.49.92.43.23-.07.5-.19.94.02-.45-.22-.54-.56-.48-.65-.4.08-.76.17-1.06.29-.38-.66-.62-.6-1.21-1.01,1.21,1.44-.41.57-.58.84C.17.48-.11.03.71.38-.14-.3-.06.07.1.45c.41.68.81,1.28.48,1.22-.04-.18.01-.19-.21-.49.43.78.29,1.41-.09.87l-.04-.18c.05,1.04.59,3.66,1.54,4.15-.12-.04-1.15-.65-1.35-.83,1.17,1.25,2.28,2.13,3.34,2.66-.39-.11-1.02-.13-1.61-.18-.59-.05-1.16-.17-1.46-.74-.06.27-.12.66.25,1.29.07-.22,1-.4,1.11-.17-.72.61-.36.48-.93,1.33.12-.23,1.29-.19,1.3.13-.18-.02-1.11.21-1.25.11l1.24.61c-.23-.16-.95.12-1.23.35.2-.12.09.69.24.88l.2-.38c-.02.92,1.71.62,1.79,1.52-.25-.07-1.45-.03-1.52.44.6.11,2.88.46,3.45,1.17l-.3.2.47.54c-.92-.23-2.89-.99-3.68-1.44-.2.38-.37.16-.26.65-.28.23-.51-.2-.55-.34v1.2c.65-.16.81.78,1.35.64l-.9-1.15c.65-.16,2,.42,2.02,1.26-.23.25-1.21.04-1.43.09.25.07.56.71.42.81l-.41-.29c-.17.5,1,.6.46,1.26-.01.2-.76.71-.36.68.71-.43,3.04-.88,3.64-.77-.04.08-.56,1.12-.9,1.4-.54.41-1.49-.24-1.96.11.18-.02.44.12.52.18-.12.23-.57,0-.42.43.68-.04.09.89.6.11.26.39-.06.47.05.97.41-.23,1.55.2,1.81.6-.18,0-.38.14-.48.2.08.88-.15,1.4-.02,2.21-.15.1-.28.53-.6.41.14.1.38.17.44.41-.5.58-.18-.54-.82-.06.4-.03.65.56.95.88.59-.21-.02-.84-.32-1.16.83-.14,1.81.34,2.33,1.13.32.64-.49.38-.35.48.06,1.29,1.63.84,1.2,1.99-.46.5-1.05.19-1.42.35-.29-.52.2-.9.12-1.27l-.18.5c-.21-.15-.4-.49-.28-.72-.42.43.26,2.16-.02,3.2.21.14.44.41.63.24l-.13-.3c.38-.35.69.48.82.06.37.37.92.75.77,1.38l-.59.21c.17-.04.3-.44.09-.57.31.2-.67,1.03.16,1.17l.35-.48c.37.37,1.1.78.99,1.32.56-.33-.09-.11.55-.59-.82.46-.18-1.33-1.01-.67.75-.51.24-.71.85-1.32-.2.05-.35.24-.33-.21-.06-.01-.14-.04-.19-.07,0-.01,0-.02.01-.03l-.02.03s-.04-.01,0,.01c-.07.12-.16.22-.27.27-.49-.14-.59-.83-.87-1.03.05-.27.25.07.44-.11l-.41-.29c.44-.11.62-.81.98-.24l-.07-.55c.2-.36.22-.82,0-1.06.05-.27-.6-.57-.21-.4l-.42-.81.11-.03c-.08-.85-1.02-1.62-.38-2.72-.16-.27-.34-.54-.3-1.04l.37-.16c-.19-.34.2-1.16-.22-1.25.97-.56-.07-1.81.01-2.48l-.5.06c-.04-.45-.26-.85-.55-1.36l-.44.11c-.44-.41.11-1.27-.05-2.01.18.02.16.22.08.37.85-1.06-1.04-1.77-.44-2.7-.19-.18-.16-.33-.08-.49,0,.02.02.03.03.05,0-.02,0-.05,0-.08.06-.1.13-.21.19-.32-.09.1-.17.2-.2.28-.03-.15-.13-.38-.28-.6l.46-.18s-.01-.03-.02-.05c.14-.26-.26-.15-.59.03-.1-.1-.21-.2-.34-.26.74-.31-.36-.57.42-.95-.42-.09-.49-1.12-1.35-1.1.11-.03.15-.1.18.02.05-.32.12-.44-.14-.59.2-.03.4-.06.61-.08-.29-.1-.59-.23-.9-.41.34-.21.57-.18,1.09.08-.41-.27-.5-.42-.59-.52-.09-.12-.17-.21-.61-.64l.44.23c-.04-.14-.68-.78-.33-.66.56.13.26-.68.27-1.23.32.15.68.36,1.05.69-.61-.81-.39-.6-.14-.35.25.25.5.54.19-.04.25.37.43.59.51.87.05-.13.24.05.35.14.12.09.17.09.16-.31.12.33.07.45.15.64,0-.06.01-.25.08-.05.06.19.02.25.03.38.15,0,.1-.91.07-1.76.28.49.33.45.59-.02.07.3.13.6-.14.61.08.05.26.2.49.29.35.13.7.16.82-.14.03.18.34.16.43.11.55.22.59.29,1.16.41l-.12-.15c.46-.66.51-.01.99.04l-.04.07c.86.86.53-.11,1.34.82l.09-.47c.41-.95.71.87,1.42.68l-.13-.33c.43-.23.47,1.62.75,1.85.04.11-.16.1-.27.13.66.85.3-.56.98-.5.01.36-.41.77,0,.97.06.16.46,0,.88-.1.21-.05.43-.09.62-.06.13,0,.17.06.17.23.07-.25.08-.52.33-.65.16,0,.21.28.25.46.05.18.1.26.56-.02-.03.07-.08.12-.14.17.22-.07.51-.08.87-.14.1.05.22.08.4.04-.92.6-.73.7-.55.96.19.24.37.6-.4.58v.29s-.03.55-.03.55l-.15-.05c-.2.69.13.99.46,1.28-.13.15-.25.01-.33-.01-.45.98-.4,1.09.24,2.06l-.5.02c.25.27-.97,1.38-.54,2.46-.05-.02-.15-.05-.2-.14.42,1.21-1.74,2.52,0,3.18l.34.81c.27-.95.76.25,1.11-.11.05.39-.67.91-.7.43l.1-.06c-.91-.3-.5,1.15-1.13,1.04-.22,1.91-.99,3.69-1.27,5.46l.75-.11-.13.61c-.19.14-.6.14-.51-.3-.44.18.24.79.4.82-.41.83-.8-.46-.85-.19v.37s.1-.07.1-.07c.26.33.57.4.46.93-.19.32-.47.11-.52.24-.05,0-.08.03-.05.2l-.17.77.62-.23c.23.39-.13.73.57.46-1.07.39-.76,2.87-1.12,3.15.35.54.28,1.02.14,1.61.14-.13.79-.13.65.37-1.3-.37-.71.86-1.72,1.14.68-.28-.04,1.48.93,1.02-.17.41-.5-.04-.86.24.37,1.09-.64,2.19-.64,3.48.17.04.47-.13.69.18l-.96.54c.05.26.97.37.31.74.16-.04.39-.11.42.07-.23.46-.37.93-.46,1.42-.09.45-.15,1.08-.14,1.27,0,.56,0,1.3-.25,1.68-.47-.12-.99-.34-1.49-.7.38.35.28.38.12.39.15.09.22.44.37.68-.38-.23-.71-.46-1-.69.06.66-.72.02-.73.66l.24-.11c-.12.37.03.79.3,1.24.26.45.67.93.75,1.41.2-.42.65-.09,1.25.19.57.28,1.31.53,1.43-.08.36.21,0,.31.27.54.02-.41.24-.49.99-.28l.02.1c.12,0,.24,0,.32,0,.19-1.61.63-2.11,1.17-4.17l-.48.04c.12-.43.29-.52.43-.7-.33-.22-.37-.04-.43.31-.06.32-.13.62-.49.29.25-.07.41-.31.52-.63.09-.22.14-.49.18-.76.09-.53.2-1.04.76-1.11.07-.48-.56.07-.49-.41l.31-.09-.36-.17c.11-.31.49-.41.74-.39-.04.07.04.23.05.31.4-.36.04-1.17.17-1.29l-.24.44c-.09-1.35.51-2.89.09-4.24l-.23.07c-.28-1.02.35-.74.31-1.83l.05.05c-.19-.24-.26-.54-.2-.83.22.3.57-.43.81-.04-.3-1.11-.27-.57-1-1.37l.39-.11c-.3-.28-.47-.33-.49-.87.26.48.61-.26.96.28.96-1-.58-1.76.66-2.11-.95-.65-.7.88-.88.57-.37.19-.7-.53-.55-.86.07-.35,1.38-.42,1.49-1.32-.02.09.06.1.04.19.31-.3-.26-.7.22-1.05-.58-.31.11-.53-.67-.7l.07.84c-.14-.49-1-1.05-.45-1.76.15.08.33.34.42.51.26-.19-.09-.45.18-.65.78.17.03,1.02.56,1.6.36-.19-.44-1.02.38-.65-1.03-.51.26-.86-.48-1.58l.46.1c-.06-.11-.26-.33-.22-.51l.57.4c-.45-.56.58-.88.37-1.39-.12.98-.6.14-1,.51-.46-1.3,1.33-.53,1.29-1.92.04.19-.38.65-.56.33.13-.24.36-.56.63-.69.03-.91-.5.07-.74-.35.61-.23-.17-.47-.3-.89l.48.06c.45-.98-.96-.41-.46-1.28l.61.48-.1-.5.53.17c-.33-.58-.2-.73.02-1.22-.35.07-.86-.19-.81-.64.33-.27.43.24.45-.42.28.19.63.4.15.62.15.05.28.18.43.24.37-.29.19-.83.22-1.06-.03.09-.07.19-.15.24l-.53-1.02c.2-.12.33.01.45.15-.03-.2-.23-.36-.23-.64.38.13.78.16.91.58l-.31-.95c.18-.04.53-.39.65-.26.3-.46-.59-1.31-.2-1.92-.07-.04-.13-.12-.17-.27.17-.6.72-1.08.29-1.88l.75-.32c-.08-.59-.95.44-1.09-.55-.13-.7.63-.17.86-.38-.15-.19-.39-.46-.5-.74-.1-.41-.07-.87.29-1.39.09.33-.05.59-.04.91ZM16.97,5.21c.16-.05.52-.27.53.03-.32.48-.35.19-.53-.03ZM5.82,2.83c.09-.14.31.02.54.28-.15,0-.32-.08-.54-.28ZM8.5,27.77h-.03c.14-.34.08-.22.03,0ZM8.4,28.43c.08.05.14.04.2,0-.13-.02-.16-.16-.15-.33-.12.07-.19.16-.05.33ZM15.22,30.84l.14-.11c.1.3-.01.2-.14.11Z"/>
      <path class="cls-1" d="M7.36,2.63c.05.1.05.2.05.29.08-.06.09-.15-.05-.29Z"/>
      <path class="cls-1" d="M21.97,16.23s0,.01,0,.02c.03.02.06.03.08.03l-.07-.05Z"/>
      <path class="cls-1" d="M2.77,19.36c.05-.14.12-.23.2-.29-.12.01-.21.09-.2.29Z"/>
      <path class="cls-1" d="M9.76,31.63l-.19-.38c.06.19-.04.28-.1.39.11-.03.26-.13.29,0Z"/>
      <path class="cls-1" d="M7.38,35.6c.07.05.03.12.1.17l.22-.05c-.06-.25-.26-.39-.31-.12Z"/>
      <path class="cls-1" d="M8.24,32.26c-.4.1-.22.33-.1.6,0-.02-.01-.03,0-.05.57,0,.34-.28.11-.55Z"/>
      <path class="cls-1" d="M8.16,32.92c.03.08.06.17.05.26.23,0,.03-.11-.05-.26Z"/>
      <path class="cls-1" d="M8.8,29.18c-.08.15.53,0,.38.1.53.07-.76-.79-.38-.1Z"/>
      <polygon class="cls-1" points="6.95 32.7 7.43 32.52 7.01 32.43 6.95 32.7"/>
      <path class="cls-1" d="M6.95,30.42l-.06.47c.08-.02.14.03.19.09-.03-.28.02-.6-.13-.57Z"/>
      <path class="cls-1" d="M7.08,30.98c.01.15.05.28.14.35-.02-.08-.06-.24-.14-.35Z"/>
      <polygon class="cls-1" points="6.7 32.11 6.79 31.96 6.77 31.64 6.7 32.11"/>
      <path class="cls-1" d="M6.25,25.56l-.22-.47c-.18-.02-.26.13-.16.3.14.1.23.27.38.17Z"/>
      <path class="cls-1" d="M5.14,27.27c.08-.15.19-.18.34-.28l-.62.09.28.19Z"/>
      <path class="cls-1" d="M4.76,25.86c-.18-.02-.61-.63-.46-.02.18.02.4.49.46.02Z"/>
      <polygon class="cls-1" points="4.32 18.33 4.35 18.45 5.35 18.27 4.32 18.33"/>
      <path class="cls-1" d="M.85,12.2c-.15.62.64.04.43.61.26.1.17-.47.4-.36-.31-.31-.2-.52-.83-.25Z"/>
      <path class="cls-1" d="M1.68,12.45s.11.1.18.15c-.08-.09-.14-.13-.18-.15Z"/>
      <path class="cls-1" d="M10.48,47.98l-.22-.22c.05.12.11.23.17.35l.05-.13Z"/>
      <path class="cls-1" d="M10.12,48.73l-.07-.65c-.04.19-.08.39-.14.58.06-.03.16-.08.21.07Z"/>
      <path class="cls-1" d="M16.37,3.64l-.08.14c0,.18.08.22.25.3l-.17-.44Z"/>
      <path class="cls-1" d="M23.48,6.44l-.14-.06c-.1.14-.2.29-.31.43l-.1.1.2-.16.35-.3Z"/>
      <path class="cls-1" d="M23.38,13.3c.05-.17-.05-.39,0-.57.05.4-.73.51,0,.57Z"/>
    </g>
  </g>
</svg>