<?xml version="1.0" encoding="UTF-8"?>
<svg id="Calque_1" data-name="Calque 1" xmlns="http://www.w3.org/2000/svg" viewBox="0 0 140.58 88.23">
  <defs>
    <style>
      .cls-1 {
        fill: #e84a42;
      }

      .cls-2 {
        fill: #e5332a;
      }
    </style>
  </defs>
  <polygon class="cls-2" points="58.23 85.69 8.94 84.14 49.26 69.67 19.05 35.96 60.86 47.51 61.34 5.49 82.35 39.59 134.82 22.63 84.4 58.22 116.23 31.77 81.28 42.53 66.69 24.57 68.08 52.54 33.13 43.37 55.99 74.71 28.66 81.07 58.23 85.69"/>
  <g>
    <path class="cls-1" d="M57.87,83.17c.93.18.66-.28.81-.34-1.58-.15-.79.45-.81.34Z"/>
    <path class="cls-1" d="M44.67,82.07l.46-.1c-.67.04-1.43.06-2.26.07l1.8.03Z"/>
    <path class="cls-1" d="M37.13,80.63c-.85.06-1.5.12-2.02.2.15.11,1.4.22,2.53.32,1.15.1,2.17.19,2.48.34l-.27.12c.92-.05,1.77-.11,2.57-.18-1-.09-2.12-.19-3.21-.29-1.19-.11-2.4-.23-3.01-.35.28-.06.59-.11.93-.16Z"/>
    <path class="cls-1" d="M46.42,80.05c-.94-.07-.33-.17-.68.07.17,0,.22,0,.31,0,.05-.02.15-.04.37-.07Z"/>
    <path class="cls-1" d="M46.05,80.12c-.24.08.99.01,0,0h0Z"/>
    <path class="cls-1" d="M47.31,79.66c-.04.09-.04.18,0,.25.44.07.73.04.84.13,0-.14-.12-.28-.85-.39Z"/>
    <path class="cls-1" d="M47.22,79.15l-.26.17c.17.03.26.03.26-.17Z"/>
    <path class="cls-1" d="M46.59,79.63c.08-.09.21-.2.37-.31-.25-.06-.66-.2-.24.14-.27-.15-.14.02-.13.18Z"/>
    <path class="cls-1" d="M45.97,79.66c-.69,0-1.66.13-1.38-.19-.78.23-.65.36-.21.38.45.02,1.08-.02,1.59-.19Z"/>
    <path class="cls-1" d="M34.05,80.59l-2.27.31.04.05,1.74.09c-.36-.02-.63-.07-.86-.12.89-.17,2.12-.36,1.35-.33Z"/>
    <path class="cls-1" d="M59.85,77.12c-.01-.15-1.77,0-2.25-.09l-2.3.71c1.38-.21,4.02-.73,4.55-.62Z"/>
    <path class="cls-1" d="M57.6,77.03l2.51-.79-.58-.69c.19.27.37.51.47.65-2.46.57-2.77.76-2.4.83Z"/>
    <path class="cls-1" d="M46.57,78.49c-.53.31-.9.58-1.09.82.3-.26.8-.57,1.5-.92l-.41.1Z"/>
    <polygon class="cls-1" points="54.1 66.61 55.14 67.43 53.37 65.91 54.1 66.61"/>
    <path class="cls-1" d="M50.71,62.05c.79.59-.36-1.33.37-.63-.95-1.22-1.93-2.13-2.81-2.96.84.94,1.61,2.05,2.44,3.59Z"/>
    <path class="cls-1" d="M46.83,57.04c.43.47.91.92,1.44,1.42-.45-.5-.92-.98-1.44-1.42Z"/>
    <path class="cls-1" d="M55.98,70.55c-.04-.13-.07-.32-.25-.71-.09-.19-.22-.44-.4-.75-.16-.27-.36-.6-.61-1l.04.24c.02.08.08.23.12.34l.25.7c.26.36.55.76.84,1.17Z"/>
    <path class="cls-1" d="M55.16,69.43l-.02-.05c-.67-.94-1.14-1.6-1.34-1.88.17.24.58.82,1.36,1.92Z"/>
    <path class="cls-1" d="M56.19,70.84c-.08-.11-.14-.19-.21-.29.04.12.07.19.21.29Z"/>
    <path class="cls-1" d="M51.4,77.76c.93-.34,2.29-.78,2.86-1.06.59-.28.39-.39-1.41-.16-.49.26-.25.34-.14.45.09.12.06.27-1.32.77Z"/>
    <path class="cls-1" d="M56.59,72.28l1.94,2.83c.15.01,0-.46.8.42l-2.74-3.25Z"/>
    <polygon class="cls-1" points="55.42 70.91 56.59 72.28 55.85 71.21 55.42 70.91"/>
    <path class="cls-1" d="M48.91,60.58c-.76-.72-1.43-1.62-2.21-2.63.73,1.15,1.53,2.31,2.32,3.4.22.07.76.41-.11-.76Z"/>
    <path class="cls-1" d="M51.79,64.74c-.05-.05-.11-.12-.15-.17.05.13.11.23.15.17Z"/>
    <path class="cls-1" d="M40.63,49.61s-.04.03-.06.05c.04,0,.07.01.11.02l-.05-.08Z"/>
    <path class="cls-1" d="M49.09,61.57c.54.88.98,1.31,1.43,1.7-.49-.59-.99-1.23-1.5-1.93-.1-.03-.14-.02.07.23Z"/>
    <path class="cls-1" d="M44.61,54.34c.24.48.54,1.02.86,1.57-.2-.5-.65-1.48-.86-1.57Z"/>
    <path class="cls-1" d="M51.53,64.22s.07.07.11.11c-.12-.33-.14-.27-.11-.11Z"/>
    <path class="cls-1" d="M51.53,64.22c-.36-.39-.69-.66-1.01-.94.39.48.77.92,1.12,1.29-.05-.12-.09-.25-.11-.35Z"/>
    <path class="cls-1" d="M34.46,45.82c.45.28,1.25,1.05,1.95,1.86.72.83,1.35,1.72,1.79,2.69.86.93,1.29.84,1.59.47.29-.38.52-.91.78-1.18-.26-.07-.4.02-1.54-1.15-.05.11.2.67.38,1.16.17.48.29.92-.37.32-1.72-2.01-.99-1.6-1.22-2.27-.18.18-.9-.5-1.87-1.48-.94-.94-2.17-2.21-2.82-2.49l2.19,2.57c-.17-.04-1.15-1.08-.87-.52Z"/>
    <path class="cls-1" d="M41.99,51.69l.61.75c-.3-.47-.53-.88-.77-1.35-.33-.6-.24-.68-.22-.91-.45-.29-.75-.45-.94-.49l.52.75,1.04,1.48-.24-.23Z"/>
    <path class="cls-1" d="M45.17,55.95c-.79-.36-2.31-2.13-1.85-.7,1.7,2.28,1.46,1.4,2.62,2.66-2.79-3.64.97.92-.79-1.9.59.69,1.09,1.33,1.55,1.93-.44-.7-.86-1.38-1.24-2.03.02.04.03.07.04.1v.02s0,0,0,0c.07.19.09.26-.02.06-.01,0-.05-.05-.06-.07-.07.01-.16-.03-.25-.07-.71-1.13-.03-.23.25.07.03,0,.06.02.08,0v-.02s-2.9-3.57-2.9-3.57c.52.82,1.25,1.8,2.56,3.51Z"/>
    <path class="cls-1" d="M54.7,75.16c.19,0,.23.02.28.04.24-.11.29-.16-.28-.04Z"/>
    <path class="cls-1" d="M56.44,74.64c.12.12.23.23.38.38-.16.1-.47.24-1.33.41-1.22.15-.26-.15-.52-.24-.26.12-.77.32-.94.45-.16.13.03.19,1.36-.01l.3-.13c.53-.09,1.12-.17,1.74-.25-.68-1.31-1.36-2.8-1.11-2.53-.08.55-.09,1.01.11,1.92Z"/>
    <path class="cls-1" d="M50.47,65.02l-2.43-2.97.85,1.79.12-.21c1.21,1.81,1.16,1.27,1.46,1.38Z"/>
    <path class="cls-1" d="M40.83,49.53c.25.08.49.15.71.2-.38-.16-.83-.41-1.36-.77l.65.57Z"/>
    <path class="cls-1" d="M39.75,48.14l.89.55c-.23-.18-.48-.39-.75-.62-.06.01-.1.04-.14.07Z"/>
    <path class="cls-1" d="M86.31,40.8c-.24.12-.96.39-1.51.6.41-.16.75-.28,1.03-.39.16-.06.22-.09.29-.12.07-.03.13-.06.19-.09Z"/>
    <path class="cls-1" d="M94.06,38.33l.13-.25c-.33.22-.45.34-.13.25Z"/>
    <path class="cls-1" d="M103.84,38.19c-.7.6-3.02,1.92-1.09.85l1.75-.99c-.69.29-.74.26-.66.14Z"/>
    <path class="cls-1" d="M115.87,35.88c-.16.06-.34.13-.51.2-.16.3-.36.6-.55.9.32-.33.68-.7,1.06-1.09Z"/>
    <path class="cls-1" d="M114.45,34.69c.42-.18.88-.4,1.39-.64-.4.16-.87.38-1.39.64Z"/>
    <path class="cls-1" d="M64.06,15.58c.14.59.28,1.13.42,1.61,0-.31-.21-.9-.42-1.61Z"/>
    <path class="cls-1" d="M69.81,39.49c.05-.71.08-1.35.09-1.93,0-.52,0-.99,0-1.43-.01.05-.03.02-.04.15l-.03.31c-.02.2-.05.4-.07.59-.05.38-.09.73-.11,1.03-.05.62-.03,1.07.16,1.29Z"/>
    <path class="cls-1" d="M87.94,35.44c-.63.29-.88.46-.83.55.65-.29,1.01-.49.83-.55Z"/>
    <path class="cls-1" d="M69.84,34.84s-.06.09-.09.15c.09.42.17.75.16,1.14.16-.42.27-.56-.07-1.29Z"/>
    <path class="cls-1" d="M25.84,80.71c-.08.01-.18.03-.26.04.14.01.2,0,.26-.04Z"/>
    <path class="cls-1" d="M44.52,87.16c-.46.01-1.22-.01-1.93-.03.35.04.93.06,1.93.03Z"/>
    <path class="cls-1" d="M50,50.61c-1.03-.24-.17,0,0,0h0Z"/>
    <path class="cls-1" d="M45.48,47.65c.23,0,.41,0,.46-.1-.11.08-.27.11-.46.1Z"/>
    <path class="cls-1" d="M68.57,26.78s.04.05.06.08c-.26-.45-.21-.37-.06-.08Z"/>
    <path class="cls-1" d="M48.52,50.02c.37.15.8.31,1.27.47-.2-.09-.59-.23-1.27-.47Z"/>
    <path class="cls-1" d="M48.67,50.27c-.35-.11-.62-.19-.88-.27-.15.04-.04.11.88.27Z"/>
    <path class="cls-1" d="M51.43,50.96c-.58-.15-1.12-.31-1.64-.48.19.08.27.13.21.13.3.07.72.18,1.43.35Z"/>
    <path class="cls-1" d="M29.1,40.1c-.05-.03-.11-.06-.17-.09-.53.04-.27.08.17.09Z"/>
    <path class="cls-1" d="M99.17,48.57s.05-.06.08-.09c-.04.03-.09.06-.13.09h.05Z"/>
    <path class="cls-1" d="M96.46,51.24c.9-1.45,1.64-1.98,2.66-2.67l-1.76-.16-.89,2.84Z"/>
    <path class="cls-1" d="M71.78,27.19l1.06,2.47c-2.23-2.4-3.26-4.49-2.42-2.08,1.35-.39,5.54,8.73,6.89,8.33l.68,1.64c-.25-.43-.36-.46-.61-.89.54,1.38.87,1.7,1.72,2.64.72.75,1.4,1.24,2.4,2.61.72-.29,1.55-.58,2.62-.89.55-.14,1.06-.27,1.5-.39.25-.06.36-.08.48-.1.12-.02.22-.03.31-.04.34-.02.37.06-.1.3l3.14-1.37c.95-.28.79.02-.15.3l4.92-1.7-.02.05c.64-.43,2.14-1.26,2.88-1.65,1.32-.22-.59.34-.21.4l2.64-1.2c1.23-.03-.94,1.03-2.85,1.6,2.98.46,2.17-1.06,7.94-2.09l-2.54,1c1.91.19,3.84-.73,6.91-1.21-.77-.01-6.23.74-3.36-.54.87-.17,1.99-.48,3.51-1.26.08.23.51.19,1.15,0,.32-.09.7-.22,1.12-.36.17-.06.35-.13.55-.2-.02.23-.04.46-.05.69.48-.35.62-.74,1.33-1.27.98-.25.38.47-.25,1.11.19,0,.54-.33.82-.66.29-.33.46-.65,1.5-1.05.67.04,1.81-.6,5.47-2.19.05.1-.51.38-1.06.66-.56.28-1.13.56-1.41.74l3.33-1.61c.17-.04-.73.42-1.18.64.87-.38,1.77-.85,2.71-1.31.95-.47,1.93-.95,3.27-1.47.03-.01.05-.02.09-.04,1.79-.85-.62.53-2.7,1.7-1.05.59-2.04,1.15-2.61,1.5-.57.36-.74.53-.32.48-1.09.55-1.41.52-2.54,1.01.27.13.11.36.13.49-.03.17.12.23-.05.78-.95.5-1.8.93-2.56,1.29.99-.41,1.53-.47,1.49-.12-.02.34-.64,1.09-1.46,1.95.91-.36,1.84-.76,2.42-1.06l-3.64,2.99c-.52.24-.25-.22.17-.84-.21.22-.41.43-.57.59-1.39.69-.91-.1-.3-.97.48-.18.96-.35,1.42-.52.45-.8.42-1.3-.21-1.31-.04.12-.25.34-.53.59.04-.16.02-.26-.12-.24-.15.02-.19.23-.43.6-.38-.03-.7-.08-.98-.18.03.09.05.19.08.29l-4.76,2.81c-2.83,2.87-5.04,5.73-10.01,9.6.97-1.33-.22-.89-.51-1.45,1.78-.45,3.82-3.04,6.56-4.81-1.43.93-1.3.47-1,.13l-4.41,3.84c-.19-.49-1.23.4-2.59,1.11,1.52.16-3.16,3.05-4.92,4.66-.31-.19-.05-.8,2.36-2.4-3.04,1.22-2.69,3.34-5.61,4.62.57-.41.91-.59,1.04-.89-1.17,1.19-4.6,3.32-4,2.54l.57-.41c-.7.48-1.53,1.05-2.45,1.68l2.02,2.63c3.77-3.11,8.66-7.43,8.65-8.34.11.05.18,1.18.08,1.49l4.6-7.54c-.1,1.03,3.19.56.46,3.36.46-.32.98-.67,1.58-1.16.3-.24.63-.52.98-.84.17-.16.36-.34.55-.52.24-.23.49-.47.75-.73-.55.39-1,.42-1.37.39-.36-.04-.54-.22-.16-.58.17-.08.33-.15.48-.21.18-.09.34-.18.49-.26.31-.17.57-.32.79-.44.46-.27.79-.48,1.15-.71.77-.51,1.65-1.1,4.02-2.67-.8.56-1.22.49-1.3.16-.07-.34.13-.86.97-1.54.07.17,2.47-.58,1.95,0,1.01-1.33,1.68-2.37,2.02-3.14-.23.33.34.16,1.26-.27.91-.43,2.21-1.16,3.28-1.85-.6.35.54-.59,1.98-1.76,1.44-1.17,3.2-2.59,3.68-3.06l-3.16,2.29c2.62-2.09,2.98-2.72,2.59-2.82-1.85.81-3.54,1.55-5.59,2.44-1.73.74-3.24,1.35-4.66,1.77.65-.32,2.22-1.18,3.33-1.88,1.11-.7,1.65-1.22.04-.8-1.64.81-5.26,2.64-8.23,4.27-1.5.82-2.86,1.58-3.97,2.22-1.12.63-1.98,1.13-2.69,1.47-.12-.08-.27-.15-.44-.21l-1.13.54-.27.13-.39.17-.79.34c.22-.18.5-.4.81-.63.36-.25.54-.46.91-.73.69-.53,1.72-1.19,3.05-1.95,1.33-.75,2.98-1.59,4.73-2.43,1.74-.83,3.58-1.66,5.14-2.32-2.21.41.01-.41-4.34.96-.56.01.17-.34,1.29-.76,1.11-.43,2.59-.93,3.29-1.15l-10.8,3.12c.12.32-1.97,1.14-3.85,1.88-1.24.54-2.36,1.04-2.17,1.27,1.67-.76,5.72-2.25,9.57-3.67-.09.38-2.12,1.5-4.3,2.57-.55.27-1.12.54-1.69.79-.52.23-1.06.46-1.63.71-.99.42-2.08.81-3.21,1.13-1.22.09.5-1.41.34-1.59-.51.4-4.12,1.73-4.58,1.7l1.79-.93c-2.56.52-3.8,2.1-6.98,2.41-.26.07-.6.11-.96.14-.22.03-.3,0-.38-.01-.08-.02-.16-.04-.23-.06-.28-.08-.42-.15-.51.09.29.71,1.84,2.72.24,3.82-.13.03-.74.15-1.62.32-.32-.49-.69-1.06-1.09-1.67-.37-.58-.78-1.22-1.02-1.65-.55-.94-1.02-1.81-1.2-2.24-.66-1.76,2.8,1.17,2.24-.33-.18.07-.98-.55-1.29-.83-.59-.98.74,0-.88-1.86-.79.11-3.12-3.93-1.18-.54-.42-.44-.72-.79-.97-1.1-.12-.16-.23-.3-.34-.44-.12-.16-.23-.32-.35-.49-.52-.73-1.11-1.57-2.3-3.02.32.74-.36.5-1.09.14-.76-.38-1.52-.83-2.13-1.43,0-.28-.45-1.19-.7-1.66-.75-.97-1.43-1.84-2.04-2.63.03,2.95-.04,5.29.16,9.29-.07.18-.13.89-.21,1.44-.08.55-.18.96-.36.33.08.42.19.88.29,1.31.1.41.18.91.23,1.62-.45,2.78-.25-3.16-.85-1.03.4.16.73,3.65,1.08,5.66.29-.33.26-1.5.12-2.84-.07-.67-.17-1.38-.28-2.05-.11-.7-.22-1.35-.3-1.87.43.06.9.9,1.35,2.36.45,1.46.87,3.53,1.18,5.93.4,3.82-.46,1.69-.31,2.34.02.42.03.81.05,1.18.03.41.05.79.07,1.15.06.73.12,1.38.2,1.99.15,1.21.33,2.25.52,3.25-.9-.05-1.73-.07-2.98-.29-.62-.11-1.36-.28-2.23-.51-.44-.12-.91-.26-1.42-.41-.29-.09-.44-.14-.63-.21-.19-.07-.38-.14-.58-.21-2.16-1.12.17-1.06-.24-1.57,1.51.29,2.69.69,3.85,1.1,1.14.41,2.29.85,3.46,1.14v-.03s0,.02,0,.02l-2.96-1.04c.59.04,1.54.19,2.45.41-.04-.63-.06-1.2-.01-1.6-.07.27-.1.77-.1,1.45-1.86-.59-4.39-1.25-7.33-2.04-2.89-.78-5.89-1.61-8.08-2.37-1-.08-2.69-.33-1.97.09l1.72.37c1.45.83-3.35-.26-1.25.5-1.18-.15-2.44-.28-3.79-.5-.68-.11-1.38-.25-2.11-.42-.37-.09-.74-.19-1.12-.3-.19-.06-.38-.11-.57-.17l-.29-.09-.18-.07c-.09-.23-.21-.48-.36-.73.01.05.12.12.28.21.17.09.31.16.66.27.62.21,1.35.4,1.82.43-.35-.02-.82-.16-1.36-.36-.25-.09-.58-.22-.81-.31-.23-.1-.47-.2-.71-.3-.97-.4-2.2-.8-2.41-.44.68.32,1.28.63,1.79.91-.69-.02-1.25.08-1.68.15-.45.07-.75.11-1.58-.21.97.57.95.54,1.04.56.06.01.29.08,1.17.68-1.04-.73-.37-.54.3-.36.32.09.62.17.77.14.13-.03.16-.14-.29-.5.71.61.93.76,1.33.94.96.33,2,.66,3.27,1.35-.03-.22-.86-.63,1.5.1.12-.03.4-.03.57-.03.07.03.1.03.16.06-.05-.02-.08-.04-.13-.06.11,0,.12,0-.05-.02-.55-.23-.98-.46-1.14-.62,1.3-.14,5.09.87,6.44.98,1.39.46-.65.07.07.48l2.01.16c.08.48,3.57,1.71.17,1.09l3,.81c.85.35,1.88.71,2.89,1.01.32.09.64.18.95.26.43.11.85.22,1.26.32.81.2,1.56.37,2.19.48,1.24.38,2.72.64,3.57.76.85.13,1.17.15.32.11l.77.17-.62-7.36.11-.05c-.02-.48-.05-.96-.07-1.44l-.06-.91c-.05-.61-.1-1.22-.16-1.84-.12-1.23-.24-2.49-.36-3.76-.11-1.28-.2-2.57-.22-3.9v-.48s0-.21,0-.21c.01-.14.03-.27.05-.4.04-.25.11-.47.2-.62-.14-.62-.33-1.6-.24-2.36.14.25.28.52.43.8-.04-.21-.05-.37-.03-.49.23.33.49.77.65,1.02.17.26.27.36.3.13.35,1.26.42,1.44.7,1.71,1.74,2.06,3.67,4.19,4.75,5.67l.48-.21c.5.61.99,1.21,1.49,1.82.68.81,1.37,1.62,2.09,2.47,1.04-.35,2.1-.72,3.22-1.1.27-.1.55-.19.83-.29.18-.07.36-.13.54-.2.34-.13.7-.26,1.06-.4l-.32-.37c2.46-1.14,6.7-1.73,10.76-3.03-.23.25-1.27.52-2.03.65,1.29-.13,2.56-.44,3.82-.84.41-.13.37-.12.51-.18l.33-.15.77-.39c.56-.29,1.26-.63,1.9-.87.63-.24,1.19-.38,1.21-.2.88-.44,1.16-.47,1.12-.34-.05.02-.11.04-.19.08.03,0,.1-.02.17-.05-.04.09-.16.22-.22.32.23-.18.35-.32.33-.35.38-.13,1.1-.41,2.15-.85l-1.81,1.06c.06-.02.1-.04.16-.06-.06.05-.07.07-.03.05-.14.12,1.03-.51,2.41-1.31.11-.06.23-.13.35-.21.07-.03.14-.06.18-.08.1.01.26,0,.51-.08-1.85,1.03-1.85,1.11-1.99,1.31-.12.17-.4.48-1.97,1.24.98-.29-1.4,1.56-.38,1.81-.22.04-.51.21-.15-.1-.96.67-1.72,1.18-2.17,1.87-.3-.01-.58-.05-.83-.1-.05.13-.12.28-.19.43-.1.17-.31.43-.45.64l-.97,1.34c-1.74.96-2.5,1.31-1.31-.29-3.13,3.54-2.74,2.63-5.34,5.72l-.1-.43c-1.08.92-2.49,2.78-3.36,3.07-1.1.55-3.1,2.1-5.52,4.07l1.99,2.59c4.25-2.93,9.74-6.91,14.14-9.49-1.96-.04,3.4-1.76,3.14-2.68.55-.05,1.57-.58.62.38,3.24-2.62,5.36-3.25,7.27-5.53.55-.05-.49.84-.05.73.24-.24.94-.96,1.39-1.07.44-.11-.36.54-.83,1.02,3.45-2.49,3.31-3.43,3.1-4.26.25-.12.47-.23.69-.34.25-.14.54-.3.78-.45.5-.3.94-.6,1.34-.9.78-.59,1.37-1.18,1.79-1.8,1.1-.46,3.07-1.51.15.66.87-.59,3.67-2.45,6.19-4.22,2.52-1.76,4.59-3.32,3.61-3.02,1.04-.54,2.48-1.69,2.61-1.87,3.78-2.62,4.42-3,7.72-5.41l-1.52.95c-1.07.35-.94.16-.19-.35.91-.6,1.98-1.29,3.3-2.16-.33.1-.74.23-1.25.41l.54-.26c-1.04.19-1.97.43-2.69.66-.73.22-1.29.44-1.82.64-.53.2-1.04.39-1.71.59-.68.2-1.48.39-2.84.66l-1.34.94c-2.25,1.27-2.98,1.35-4.26,1.52-.63.08-1.41.19-2.39.42-.97.23-2.15.58-3.37,1.08.38-.03.72-.04,1.05-.05-1.4.64-2.26.55-3.64.56-1.32,0-3.18.1-4.67.52-.64.11,1.02-.48,1.98-.86-1.94.47-3.08.8-3.64,1.01-.57.22-.6.34-.57.46.07.24.31.53-1.43,1.17-.76-.11.57-1.09-1.82-.38-1.27.12-6.55,3.27-9.99,3.7.79.02,1.58.04,0,.75-2.48.9-7.09,1.26-9.11,2.77-.34.04-.48,0-.52-.05-.61.27-1.51.63-2.42,1-.56.26-1.15.54-1.65.78-.34-.37-.68-.71-.94-.84.03-.14.05-.29.05-.43-.01-.16.01-.23-.09-.49-.17-.45-.43-.96-.75-1.5-.64-1.09-1.52-2.32-2.37-3.49-1.71-2.35-3.3-4.49-2.64-4.88l-3.33-5.24.22.06c-1-1.72-1.76-2.82-2.4-3.63-.65-.81-1.12-1.23-1.82-2.01-.58-1.13,0-.48.12-.43-2.07-3.65-3.36-5.87-4.49-7.55-1.12-1.67-2.16-2.97-3.52-4.46l-.77-2.2c-.09-.07-.24-.3-.46-.66-.01,1.59-.23,3.94-.39,7.35-.08,1.69-.15,3.61-.18,5.61-.02,1.98,0,4.09.11,5.9-.06-.03-.15-.24-.21-.93.02.5.04,1.01.06,1.53.01.42.02.84.02,1.27,0,.86-.04,1.74-.08,2.63-.09,1.77-.25,3.56-.36,5.22-.23,3.32-.3,6.13.59,7.32l.4,4.23c.2-5.46.77.82,1.1-1.42.08,2.16-.61,5.52-.67,2.91l.09-.41c-.2-.21-.34-.01-.43.43-.05.22-.08.5-.11.82-.03.26-.05.48-.06.74-.06,1-.07,2.23-.23,2.47-.18-.1-.31-.2-.37-.3-.75-.21-1.5-.42-2.25-.63-1.19-.35-2.38-.69-3.56-1.03-2.54-.76-5.06-1.52-7.56-2.27-2.5-.76-4.98-1.5-7.43-2.25-1.23-.36-2.46-.73-3.67-1.09-1.47-.42-2.93-.83-4.39-1.25.6.42,1.13.82,1.58,1.2l-4.64-1.33c-1.33-.54-2.23-1.21,1.49-.15-1.04-.5-2.63-.85-3.76-1-1.15-.15-1.83-.1-1.76,0-3.49-1.12-3.39-1.31-2.34-1.21,1.01.09,2.92.47,1.74.14l-3.07-.79.85.32c-1.98-.24-1.4.25-5.61-.95-.29-.1-.54-.18-.71-.24.82,1.14-.59-.05.03.68-.15-.09.05.17,1.13,1.3l4.47,5.08c-.26-.58-.47-1.1-.62-1.56,2.44,2.29,3.77,4.25,3.11,2.54.18.58,1.22,1.96,2.71,3.76.72.84,1.5,1.76,2.31,2.7.64.73,1.31,1.48,1.96,2.23,2.65,2.97,5.28,5.77,5.77,6.56,2.15,1.76,3.95,3.79,6.15,6.32-.47-.7-.32-1.51,1.56.7-.85.05-.08,1.14,1.02,2.51.14.17.28.35.42.53l.22.27.13.17c.16.22.32.44.44.64.25.41.38.75.2.92.1-.26.54.11,1.16.72-.49.22-1.13.49-1.48.71-.33.21-.46.42.45.38-.87.25-.95.15-1.03.02-.07-.14-.16-.29-.68-.27-.09.05-.13.08-.27.15l-.5.22c-.34.14-.69.28-1.03.43-.7.28-1.42.55-2.16.81-1.48.53-3.03,1.03-4.62,1.53-1.59.51-3.22,1.03-4.88,1.55-.82.28-1.65.56-2.49.84l-1.84.66-1.91.71c0,.09.49.03.73.08.24.04.21.19-.62.63-1.9.37-4.08.84-6.52,1.4-.97.39-.89.63-1.14.9-.28.28-.79.54-3.43,1.17.95-.18,2.24-.41,1.19.03-4.71,1.48-9.48,3.12-13.93,4.7,7.88.2,15.84.41,23.8.61l5.67.21c1.37.07,2.75.15,4.12.25,2.74.2,5.47.48,8.18.87-1.9-.4-.63-.39.84-.36-.95-.11.04-.43-.14-.68l5.9.85c1.1-.63,6.35.15,6.99-.46l-1.88.05c2.52-.67-3.44-1.77-3.04-2.71-2.82.76-7.32-1.49-11.94-.42-1-.23.87-.28.34-.52-1.17.37-2.58.42-5.17.15l.3-.09c-.91-.02-1.76-.04-2.56-.07-.78-.03-1.51-.06-2.21-.09-.84-.05-1.57-.13-2.23-.21-1.34-.16-2.41-.37-3.68-.54-.49.14-.95.29-1.39.43-.76-.09-.35-.22-.23-.34-2.06.29-1.47.32-.81.36.62.04,1.33.09-.61.43.83-.45-.62-.5-2.18-.57,1.69-.59,3.51-1.21,5.79-1.43.51-.18,0-.14-.55-.09-.55.05-1.13.11-.43-.13l1.24-.13c-.28-.04-.53-.08-.77-.13,1.15-.35,2.36-.39,2.9-.31-.23.05-.28.18-.38.23.82-.11,1.17-.27,1.55-.47.36-.19.73-.42.91-.42l-1.14.21c.31-.15.66-.3,1.04-.45.19-.08.39-.15.59-.23.46-.17.93-.34,1.4-.51,1.88-.68,3.81-1.38,5.72-2.07,1.92-.69,3.82-1.4,5.66-2.11.91-.37,1.81-.73,2.69-1.08,1.24-.51,2.45-1.01,3.62-1.49l-.93.1c2.33-.98,3.65-1.48,4.83-1.87-.74-.87-1.22-1.52-2.03-2.51-.4-.49-.89-1.06-1.52-1.77-.32-.35-.67-.74-1.06-1.18-.32-.35-.68-.73-1.07-1.15l.19.13c-.97-.74-2.12-1.86-3.2-3.1,1.21.95-1.52-2.46.02-1.18-4.28-4.11-2.21-1.95-5.44-4.31l-.33-.92c-1.14-.77-1.35-.73-3.41-2.9,1.88,1.62-.85-1.8,1.29-.03-1.79-2.61-3.5-4.21-4.89-5.53-.68-.64-1.4-1.34-1.57-1.58-.27-.35-.44-.71-.28-.98-.55-.23-.83-.3-.83-.14,0,.15.24.5.54.86.16.18.32.37.46.54.19.21.36.41.5.56.34.38.47.55.16.29.34.63-.24.27-.96-.33-.63-.5-1.55-1.4-2.03-2.01-.55-.63-.53-1.1-.45-1.5.05-.43.25-.68-.58-1.59.15.18.38.31.52.48.04-.11-.23-.36-.59-.7.27,0,.64-.05,1.87.56-.34-.41.12-.28.42-.21.32.07.52.1.17-.41l-2.5-.5c.51.03.76-.19,1.6-.17.79,0,2.24.29,3.92.98-.27.09-1.12.07-1.59.07.89.49,1.48.25,2.41.75-.37.31-.98.19-1.85-.03-.82-.21-1.93-.52-1.99-.22.57.33.83.26,1.2.28.37.02.62.08.68.54-.07-.59.71-.33,1.33-.09.15.08,1.08.38,1.8.56.77.19,1.58.33,2.46.36l-.34.4c.54.07,1.68.15,2.64.43l-1.9.11c2.81.23,5.02,1.86,7.66,2.29-5.36-1.47-1.05-.88-3.22-1.84,6.78,1.21,3.47,2.25,10.93,4.07-1.02-.21-3.68-1.31-2.06-1.09,1.38.48,3.19,1.17,3.99,1.65,4.93,1.26-.62-.68,1.54-.38.38.25.72.41,1.06.5.54.15,1.05.24,1.57.3,1.04.13,2.05.15,3.52.46l.33.59c.88.28,1.62.49,2.18.65.04-2.85-.21-3.3-.42-3.87-.1-.29-.2-.61-.24-1.24-.02-.32-.03-.71-.02-1.22,0-.26.02-.55.03-.87.01-.32.03-.72.06-.97.11.29.21.94.32,1.48l.31,1.8-.06-2.14-.03-.97-.04-.68.54.57c-.37-2.96-.26-3.88-.07-6.78-.35.67-.87-.39-.86-2.96.31-1.75.45.99.42-2.65.29.82.66,1.73.2,3.31.16.16.29.81.45.98.35-1.88.13-4.74.14-6.05-.02.51-.06,1.11-.13,1.42l-.61-5.28c.19-.83.33-.17.46.49-.04-1.07-.25-1.81-.28-3.38.39.41.79.32.95,2.54l-.38-5.03c.09-.08.21-.25.32-.34.11-.09.23-.09.3,0,.12-.16-.07-.51-.24-1.29-.17-.72-.33-1.9-.18-1.97-.05-.22-.1-.47-.15-.8,0-.03.02-.04.04-.03.36.67.71,1.51.96,2.04.27.57.43.8.93,1.09,0,.23-.01.43-.05.59-.02.08-.04.16-.07.23l-.04.1-.02.05.04.15c1.83,2.66-.9-3.16,2.14,1.27,2.18,3.12.23,1.52.77,2.76,1.29,1.42,3.63,3.84,4.97,7.11-.72-.91-1.11-1.74-1.72-2.63ZM105.52,34.4c-.7.33-2.07,1.1-2.69,1,.66-.8,1.39-.75,2.69-1ZM110.6,38.46c.38-.46,1.14-.91,2.07-1.33-.57.45-1.25.91-2.07,1.33ZM61.28,53.17s.06,0,.09,0c1.61.62,1.04.39-.09,0ZM57.89,52.06c-.36-.03-.36.05-.23.15.27-.05,1.05.14,1.92.4-.21-.19-.64-.39-1.69-.55ZM14.92,34.24l-.34-.56c1.91,1.92,1.15,1.26.34.56Z"/>
    <path class="cls-1" d="M114.65,34.8c.2-.04.36-.04.5-.03.05-.13-.1-.15-.5.03Z"/>
    <path class="cls-1" d="M63.98,15.25v.02c.03.15.06.24.08.31l-.08-.33Z"/>
    <path class="cls-1" d="M79.11,36.73c.41.61.6.99.7,1.26.12-.04-.02-.37-.7-1.26Z"/>
    <path class="cls-1" d="M42.04,48.75c.15,0,.32,0,.52,0-.28-.05-.41-.19-.63-.33.09.14.27.36.12.32Z"/>
    <path class="cls-1" d="M40.52,53.57c.24.23.42.57.67.8l.13-.21c-.85-1.14-1.58-1.84-.79-.59Z"/>
    <path class="cls-1" d="M39.67,46.47c-.58-.57-1.49-.67-2.41-.83.06.01.12.03.19.05.84.81,1.37.75,2.22.78Z"/>
    <path class="cls-1" d="M37.03,45.59c-.29-.06-.6-.13-.98-.25.44.35.49.18.98.25Z"/>
    <path class="cls-1" d="M53.44,51.17c-.71-.29-.59.38-.97.11-.95.28,5.05.68.97-.11Z"/>
    <path class="cls-1" d="M36.84,44.35c.44.29.85.57,1.24.84.07-.12.17-.23.3-.34l-1.53-.5Z"/>
    <path class="cls-1" d="M48.97,47.91l-2.44-.78c.02.09-.31.06-.71,0,1.52.42,3.17.95,3.14.79Z"/>
    <path class="cls-1" d="M45.83,47.12c-.79-.22-1.55-.41-2.01-.44.43.11,1.36.33,2.01.44Z"/>
    <polygon class="cls-1" points="40.13 45.05 40.93 45.37 42.7 45.87 40.13 45.05"/>
    <path class="cls-1" d="M68.16,44.69l-.28-2.78c-.19-.28-.25.49-.13,1.52.15.66.27,1.69.41,1.26Z"/>
    <path class="cls-1" d="M66.66,51.23c.27.11.46.21.59.29.06-.11.14-.11.24-.22l-.66-.77.16.67-.33.03Z"/>
    <path class="cls-1" d="M66.66,45.06c-.19-.27-.69-4.02-.48-.49.18.27.47,3.06.48.49Z"/>
    <path class="cls-1" d="M80.47,41.1l-.42-.51c-.22.26-.44.53-.66.81.39-.06.75-.16,1.08-.3Z"/>
    <path class="cls-1" d="M126.64,25.74c-4.44,1.11-3.69,1.79-7.2,2.55-1.93.85,2.82-.61.85.21,3.83-1.44,4.94-1.64,6.34-2.77Z"/>
    <path class="cls-1" d="M120.3,28.51c-.62.24-1.28.5-1.99.78,1.03-.38,1.6-.61,1.99-.78Z"/>
    <polygon class="cls-1" points="52.3 87.95 54.42 88.23 53.05 87.84 52.3 87.95"/>
    <path class="cls-1" d="M56.4,87.32l.48.66,1.3-.55c-.48.01-1.42.04-1.78-.12Z"/>
    <path class="cls-1" d="M111.55,33.82l.11-.2c-.37-.06-.84.08-1.8.36l1.69-.16Z"/>
    <path class="cls-1" d="M82.23,42.79l.84-.26c-.5-.04-.95-.1-1.36-.18.15.15.32.3.52.44Z"/>
    <path class="cls-1" d="M66.82,21.55c.5.85,1.22,1.77,1.72,2.63-1.22-1.78-1.24-3.24-1.72-2.63Z"/>
  </g>
</svg>