<?xml version="1.0" encoding="UTF-8"?>
<svg id="Calque_1" data-name="Calque 1" xmlns="http://www.w3.org/2000/svg" viewBox="0 0 81.53 128.91">
  <defs>
    <style>
      .cls-1 {
        fill: #e8403d;
      }

      .cls-2 {
        fill: #e52421;
      }
    </style>
  </defs>
  <polygon class="cls-2" points="81 .44 31.37 55.72 52.23 48.92 18.76 89.78 31.92 83.36 .12 128.86 48.37 74.43 34.12 76.98 70.3 37.01 45.08 44.67 81 .44"/>
  <g>
    <path class="cls-1" d="M81.51.86c.08-.24-.15-.26-.53.27l-.03.56.56-.83Z"/>
    <path class="cls-1" d="M78.31,3.84c-.35.69-.68,1.54-.14,1.35.23-.78.44-.84.66-1.7.38-.52.79-.81.82-.64.08-.23.69-.73.74-1.13-.73.49-1.4,1.31-1.94,2.3-.21.14-.13-.09-.14-.18Z"/>
    <path class="cls-1" d="M55.05,42.13l-.4.08c.11-.01.25-.04.4-.08Z"/>
    <path class="cls-1" d="M54.45,53.56c.19-.23.25-.34.24-.37-.17.22-.31.4-.24.37Z"/>
    <path class="cls-1" d="M49.72,58.25c.1-.1.19-.18.28-.28-.12.09-.24.19-.28.28Z"/>
    <path class="cls-1" d="M55.05,42.13l1.03-.2c.04-.12-.53.08-1.03.2Z"/>
    <path class="cls-1" d="M73.46,11.08c.12-.18.22-.34.29-.49-.1.15-.2.29-.31.43,0,.02.01.03.02.06Z"/>
    <path class="cls-1" d="M48.87,38.84l.2-.25c.03-.1.05-.19.06-.29l-.26.53Z"/>
    <path class="cls-1" d="M57.14,28.57c-.2.22-.04.48-.02.65.02-.2.11-.41.26-.63-.04-.04-.11-.05-.24-.02Z"/>
    <path class="cls-1" d="M70.71,12.65l.2-.31c-.05.08-.14.22-.2.31Z"/>
    <path class="cls-1" d="M46.44,45.08c-.02.05,0,.08.04.09.04-.05.02-.08-.04-.09Z"/>
    <path class="cls-1" d="M69.8,10.94s.03.02.04.03c.03-.08.03-.11-.04-.03Z"/>
    <path class="cls-1" d="M81.05.49l-.13.17c.02.05.05.1.09.14l.04-.31Z"/>
    <path class="cls-1" d="M41.28,67.03s.02-.02.04-.04c.19-.26.07-.12-.04.04Z"/>
    <path class="cls-1" d="M14.62,110.14c-.91,1.09-1.36,1.59-1.76,2.01-.42.46-.78.82-2,2.32.24-.27.95-1.06,1.6-1.8.68-.77,1.51-1.75,2.16-2.53Z"/>
    <path class="cls-1" d="M73.21,11.32l-.34.42c.16-.19.27-.31.34-.42Z"/>
    <path class="cls-1" d="M10.86,114.48l-.02.02-.24.3c.11-.13.17-.21.26-.32Z"/>
    <path class="cls-1" d="M44.94,76.49c.11-.05.21-.11.32-.18-.06.03-.16.08-.32.18Z"/>
    <path class="cls-1" d="M36.89,72.72l-.46.45c.18-.18.33-.32.46-.45Z"/>
    <path class="cls-1" d="M39.64,83.07c-.2.2-.3.24-.52.55.03-.02.07-.04.1-.06.06-.13.17-.28.42-.49Z"/>
    <path class="cls-1" d="M32.14,91.53c.06-.03.12-.08.18-.12.07-.09.15-.19.23-.28l-.41.4Z"/>
    <path class="cls-1" d="M46.96,36.58c.22-.13.39-.19.54-.22-.27,0,.79-1.29-.54.22Z"/>
    <path class="cls-1" d="M73.33,10.98c.01.1-.02.19-.12.34.08-.1.15-.2.23-.3-.01-.05-.04-.08-.11-.04Z"/>
    <path class="cls-1" d="M40.99,84.89l-1.22,1.32c.35-.36.8-.84,1.22-1.32Z"/>
    <path class="cls-1" d="M29.51,74.86l.24-.34c-.11.12-.19.24-.24.34Z"/>
    <path class="cls-1" d="M36.27,90.21c-.29.17-.56.39-.82.63-.03.07-.08.15-.08.2l.9-.83Z"/>
    <path class="cls-1" d="M47.5,36.36h0s0,0,0,0Z"/>
    <path class="cls-1" d="M54.91,27.12c-1.15,1.27-.27.84-.35,1.25-1.29,1.59-.83.52-1.44.91-.78,1.01-1.18,1.97-1.83,2.67-.09.01-.23.13-.14-.08-.68,1.2-2.66,2.99-3.44,4.4-.1.07-.16.09-.21.09.31-.07.47.03.54.16-.51.57-.78,1.21-1.15,1.27.32-.35.27-.44.36-.65l-.46.67c-.74.31.64-.9.45-1.07-.96,1.24-1.97,2.79-2.84,3.62-.42-.04,1.79-2.17.5-1.18l1.34-1.3c-1.35.7.78-.81-.52-.23-1.71,1.75-1.7,2.15-3.4,3.9-.23.53.33.05.1.59-2.06,2.81-2.46,1.46-3.82,3.66-.27.64-.12,1.12-1.5,2.32l.13-.72c-1.61,1.74-.49,1.37-2.34,3.05.18-.43,1.15-1.47.87-1.23-.65.5-.8.74-.89.98-.04.12-.08.24-.15.38-.11.18-.3.45-.61.8-.2.05-.41.12-.64.2-1.87,2.14-3.63,4.26-5.21,6.17,1.52-.54,3.08-1.09,4.64-1.64-.36.22-1.32.65-.44.47,1.5-.53,2.94-1.02,4.41-1.5.52-.16,1.04-.33,1.56-.5l1.34-.4c1.79-.52,3.58-1,5.22-1.43l1.14-.68c.29-.09.57-.05.28.11,1.29-.3,0-.2.58-.51.19-.07.34-.11.35-.09.05,0,.08.02.1.04.03.05,0,.13-.03.19.13-.12.4-.29.79-.48.39-.19.9-.41,1.38-.59-.3.41-.82,1.01-1.25,1.32,0-.04-.02-.07-.03-.1-.27.23-.16.34-.21.61,0,.03,0,.06-.02.1l-.09.18c-.06.12-.14.24-.22.37-.17.25-.4.52-.73.82l.18-.3c-2.73,3.14-5.44,6.86-7.79,9.03-.06.73-2.75,3.06-2.47,3.64-1.73,1.65-1.38,1.06-3.65,3.52-.59.67-.56,1.26-1.21,2.16l-.26-.17-.7,1.36-.79.38-.59.85c.28-.31.66-.59.69-.49-.92,1.34-2.66,2.91-2.81,2.85l-2.22,3.13c-.04-.14.33-.67.59-1.11-1.05,1.78-.49.08-1.45,1.71.21-.15.06.22.08.29-.37.3-.89.86-1.43,1.51-.3.36-.61.74-.91,1.12-.47.6-.93,1.18-1.35,1.72.02-.13.04-.27.07-.43-2.4,2.87-4.83,5.93-7.2,8.89,1.59-.79,3.23-1.6,4.88-2.42-1.67.7-.17-.44,1.1-1.1-.05.15-.08.28-.08.4.64-.42.31-.3.15-.26-.18.05-.18,0,.87-.65,1.5-.69.69.08-.61.83l2.4-1.3c.06.08-.52.42-.79.69.59-.4,1.53-.77,2.65-1.25.56-.24,1.15-.5,1.69-.76.31-.15.52-.29.68-.47l.12.05.15-.07.04-.02.07-.05c.06-.04.12-.08.17-.12.13-.09.31-.21.51-.33,0,.02-.02.05-.05.08.76-.6.46-.27.76-.31-.33.4-.69.77-.94,1.02-.03,0-.46.55-.78.97-.33.44-.66.9-.99,1.37-.81,1.4-.07.52-.35,1.21-.28-.05-1.57,1.84-1.04.76-1.55,2.28-1.98,2.92-3.8,5.89.3-.25.58-.57.53-.34-.33.54-.91,1.12-.96.97l.07-.15c-.96,1.71-2.41,3.46-3.78,5.13-.34.42-.68.83-1.01,1.24l-.24.3-.37.49c-.27.37-.54.74-.8,1.1-1.05,1.45-1.99,2.85-2.48,3.79l.12-.22-2.34,3.84c-.74,1.02-.72.9-.66.72.05-.17.14-.44-.68.59-.89,1.59-1.88,3.04-3.06,4.69-1.15,1.62-2.47,3.41-3.38,4.77.03.04.13,0,.3-.11-2.13,2.59-1.8,2.57-1.7,2.82.07.1.11.24.07.45-.03.21-.14.49-.21.69l.14-.19c.08.04-.11.29-.09.36.02-.04.08-.24.09-.16-.02.07-.04.14-.07.22.57-.36,1.25-.86,1.66-.98.42-.13.57.13.48.73,2.12-2.31,4.24-4.6,6.33-6.88,1.59-1.76,2.58-3.22,3.42-4.45.43-.62.83-1.2,1.29-1.75.46-.57.95-1.09,1.72-1.8l-1.41,2.09c1.69-2.05,3.19-3.82,4.69-5.55,1.04-1.18,2.09-2.37,3.13-3.56,1.68-1.88,3.37-3.75,4.85-5.68-.14.27-.07.34-.38.69.86-.61,2.53-2.84,2.39-2.98.52-.55.25-.01.63-.3.79-.68,1.49-2.14,2.03-2.39.09-.04-.13.27-.25.42.36-.58,2.1-2.32,1.46-2.02,1.31-1.28,2.22-2.7,3.31-3.68.4-.92,2.18-2.24,2.06-2.76.25.4,2.4-2.15,3-3.16-.15.38.77-.66.61-.19.87-.99,1.61-1.95,1.28-1.93,1.01-.73,1.74-1.71,2.39-2.59.33-.44.64-.85.95-1.18.08-.08.16-.16.24-.24.1-.09.2-.18.3-.27.26-.24.54-.45.83-.66,1.49-1.81,2.95-3.57,4.22-5.11-3.6.75-6.87,1.42-10.08,2.09.02-.23.98-.42,1.9-.59.32-.07,1.28-.24,1.8-.37.57-.14.97-.27.98-.4-.75.16-1.46.32-2.15.46l-.37.09-.27.07c-.18.05-.35.09-.52.14-.68.18-1.32.36-1.95.53-.64.17-1.27.33-1.96.47-.41.1-.7.15-1.06.19-.27-.01.44-.28.53-.37-.37.13-.79.22-1.15.29.23-.26.46-.51.69-.76.4-.5.79-.99,1.18-1.48.03.03-.16.3-.33.55.38-.44.96-.96.77-1.05l-.34.46c-.85.49,1.1-2.14,1.05-2.32-.23,1.13,2.08-2.07,1.57-.41.23-.31.48-.73.32-.76.41-.4.59-.48.32.06,1.32-1.63.66-1.22,1.94-2.63.07.07-.16.38-.2.61.5-.84,1.01-1.69,2.15-2.82-.02.11.16.03-.16.38,1.83-2.06,2.77-3.83,4.94-5.94-.28.95.8-.67,1.18-.54l1.01-1.28-.57.36c.96-1.05,1.6-2.17,2.52-2.99l-.6.89,1.74-2.03-1.12,1.02c.82-1.2-.45-.2.9-1.54-.23.31.96-1.05,1.62-1.46h0c.38-.6.78-1.22,1.55-1.94.27-.12.16.44.34.36.24-.72,2.17-2.53,2.52-3.41-.14.27,0,.41.09.37l.2-.6c.5-.43.6-.48.64-.3,1.37-1.44-.77.15.96-1.46-.11.15-.02.11-.25.42.83-.84,1.57-1.72,2.29-2.57.65-.77,1.6-1.87,2.62-2.91,1.21-.77-1.63,1.94-.55,1.22,1.64-1.86,3.09-3.64,4.32-5.14-2.4.82-4.36,1.49-6.19,2l.68-.16c-.47.42-.98.5-1.82.66-.47.09-.8.13-1.2.22-.39.09-.77.2-1.12.37.35-.15.39-.42.31-.34-2.01.52-4.03,1.36-6.99,2.43l.33-.24c-1.21.24-3.1.87-4.39,1.19-.34.24-1.07.44-.57.5-.3.03-.59.07-.87.12-.24.04-.49.09-.73.13-.34.06-.64.14-.96.24-.63.2-1.4.52-2.31.87.21-.33.5-.75.88-1.22.38-.46.85-.95,1.29-1.28-.18.22-.24.49-.12.33l.23-.34.33-.45.92-1.24c-.33.04-.36.23-.91.61.14-.39.61-1.13,1.09-1.72-.75,1.17.3.22.77-.16-.12.03-.05-.18-.14-.18,1.33-.99-.19-.5,1.41-2.03l.02.17c.47-.68.82-1.37,1.41-2.03.44-.12-.46.76-.32.94.77-.98,1.16-2.23,2.07-2.93-.28.46-.75,1.05-1.03,1.51,1.02-.76,1.05-.92,1.66-1.59l-.06.07,1.44-1.55-.4.36c.44-1.65,1.9-2.54,2.87-4.46-.95,1.86-.02.42.12.73.4-.36.99-.94.91-.7.44-.92,1.19-1.16,1.8-2.48.11.01.68-.82.73-.49.75-1.05-.32.13-.35-.03.99-1.75,3.26-3.37,4.71-5.88,1.41-2.03,1.44-2.59,2.76-4.48.61-.5-.12.72-.12.72.9-.88,1.47-1.62,2.12-2.6-.08.24.13.09.44-.12.57-.75.12-.71,1.02-1.59-.05.23-.09.56-.29.98.63-.92,1.18-1.89,1.84-2.83.32-.13-.24.7-.41,1.09.76-1.05,1.99-2.7,2.03-3.18l-.6.58c.29-.37.33-.04.15.26-.53.99-1.08,1.18-1.19,1.17l.47-.68c-.97.29-2,2.61-3.07,3.87l.11-.8-.8,1.53c-.31.21-.65.26-.18-.42-.9.79-.54.91-1.36,1.55-.1.06-.08.01-.03-.08l-.63.97c.07-.23-.35-.04.14-.55-1.49,1.46-1.86,2.79-2.6,3.2l.09-.15c-1.7,2.32.06.41-1.02,2.31l-1.5.65.06.41c-.2.22-.58.66-.61.5-.53.99.22-.06-.03.56-1.12.93-2.38,3.14-2.96,3.08-.14.54,1-.95.16.34-.68,0-1.04,1.42-2.05,2.29.04-.48.93-1.35-.08-.49-.14.9-1.68,1.91-2.3,2.82.25.27-1.39,1.95-2.46,3.46-.02-.17-2.35,2.57-3.53,3.82l-.02-.08c.08.49-1.1,1.82-1.85,2.87-.14-.18-.06-.41.3-1.02l-.76.94c-.09.3-.28.63-.74,1.27l-.02-.41c-.4.5-1.24,1.66-1.88,2.55-.69.94-1.37,1.82-2.51,3.08.28-.15,1.07-.83,1.56-1.17.5-.35.75-.41.4.16-.42.3-1.16.83-.9.42-.06.09-.11.22-.24.4.17-.06.32-.11.41-.11l-.77.36c0-.06,0-.12,0-.2-.22.24-.34.38-.39.46.51-.19.82-.46,1.4-.62-.49.36.32.05-.14.35-.29.11-.62.1-1.18.35.95-.25,2.06-.47,2.37-.4.05-.13.37-.39,1.17-.66,1.01-.31,1.16-.3,1.2-.23.05.06-.04.18.64.03.15-.08.34-.16.55-.23.18-.06.38-.13.56-.2.29-.11.53-.22.5-.37.45-.14.58-.03.77,0,.76-.37,3.72-1.17,2.73-1.2l-.21.04s.08-.03.13-.05h0s0,0,0,0c2.53-1.08,5.49-1.49,8.05-2.4l.02.1c.74-.28,1.66-.58,2.38-.83.59-.21,1.17-.43,1.76-.72.42-.13.61,0,.26.23.77-.3,1.24-.54,1.86-.64-.1.1-.27.25-.46.43.02-.23-.41.22-.16-.04-.05.01-.15.04-.33.09.11-.02.19-.03.23-.02-.34.32-.59.53-.75.7-.16.18-.22.29-.3.55-.13-.05-.41.14-.61.31-.21.18-.39.37-.47.52.18-.11.39-.25.63-.43-.14.18-.3.36-.46.53-.2.21-.4.42-.6.62l.03-.53c-2.51,2.17-3.48,4.87-5.67,6.27-.41.8,1.32-1.22,1-.46-1.05,1.09-2.47,1.94-2.78,2.3-1.53,1.42-.94,1.76-2.49,3.29.27-.13.69-.11-.32,1.17-1.05,1.1-1.62,1.05-1.05.27.24-.28.38-.38.4-.34.3-.39.69-.9.19-.54l-.04.23c-.6.48-1.99,2.03-1.8,1.54-.69.93-.18.49.43-.09-1.43,1.33-2.04,2.25-3.47,3.66.26-.19.56-.32.35-.08-2.08,2.08-.7,1.11-2,2.62-.89.72-.05-.59-1.28,1-.91.82-.41-.02-.15-.44-1.06,1.51-2.4,2.43-3.13,3.17l.57-.78c-.34.46-.66.81-.98,1.17l.54-.25c-.41.39-.73.74-.8.67-.28.54.59-.07-.03.93-.59.48-1.44,1.79-1.85,1.77,1.67-1.68-.41-.02.9-1.54-.23.31-.55.66-.96,1.05-.08.04,0-.1.1-.23-1.73,1.49-.43,1.01-2.02,2.75.07-.34-.61.18-.84.49.64-.7.52-.14.04.6-1.11,1.02-1.02,1.28-1.56,1.86l.65-.62c-.1.38-.49.78-1.46,1.93-.24.06.78-1.01.38-.65-.41.68-1.04,1.26-1.9,2.07-.83.78-1.91,1.81-2.46,2.58-.09.08-.17.15-.22.19.47.04-.86.47-.02.39,1.81-.44,2.46-.5,3.27-.57.78-.07,1.72-.17,3.42-.57-.48-.03-.72-.04-.59-.11.07-.03.23-.09.5-.17.13-.04.29-.09.49-.14.12-.04.26-.09.42-.15l-4.74,1.02c1.25-.34,2.36-.66,3.32-.95-1.28.22-2.99.69-3.78.79,1.72-.5,1.38-.38,1.12-.54.56.08,1.57-.15,2.45-.38.43-.11.91-.23,1.27-.31.34-.08.7-.13,1.08-.14l.06.59c1.13-.07,2.11-.32,3.16-.6l.4-.11c.13-.04.3-.08.32-.09.11-.04.24-.08.37-.12.27-.08.6-.14.85-.15-.08-.02-.17-.04-.29-.05.21-.15.47-.21.73-.25.26-.04.49-.06.82-.14-.02.03-.03.05-.04.07-.49.25-.86.56-1.21.77.17-.08.03.07-.07.23-.1.15-.18.34,0,.43-.13.09-.26.16-.37.22l-.16.08s-.04.02-.08.04l-.13.1c-1.65,1.7-1.37,2.4-2.93,4.05.29-.66-.5.03.4-1.22-.51.57-.99,1.05-.89,1.15-.39.25-1.2,1.75-1.8,2.15-.15.3-.06.51-.64,1.14-.09.04-.07-.07-.07-.07.07.07-.79,1.09-.13.67-2.01,1.34-4.31,4.93-6.05,6.1-1.05,1.29-2.33,2.82-3.32,3.96.02-.11-.07-.07.13-.27-1.52,1.43-.42,1.33-2.14,2.96-1.04.69.7-1.05.11-.57-.7-.19-1.83,2.19-3.16,3.13l.23-.31c-.97.76-1.78,2.38-3.14,3.84,0,0,.02-.11-.07-.07-.33.62-.9,1.43-1.53,2.27-.59.76-1.22,1.56-1.75,2.25.26-.68.37-.62.14-.75-.15.2-.11.31-.11.48,0,.17-.05.39-.56,1.02-.3.13-.82.53-.56-.18l.58-.68c-.07-.19-.18-.06-.38.22-.19.27-.48.71-.57.78l.28-.55c-.36.44-.78,1.09-1.28,1.8-.49.71-1.08,1.51-1.62,2.09l-.3.52c-1.07,1.5-1.08,1.43-.95,1.18.11-.22.35-.62-.68.76l1.68-2.49c-.06.08-.13.17-.29.37-.49.64-1.27,1.64-2.12,2.74-.88,1.11-1.86,2.34-2.52,3.14,2.57-3.34,4.22-5.43,5.47-7.1-.26.29-1.05,1.22-2.57,3.23.41-.52,1.18-1.54.93-1.16-2.31,3.08-4.31,5.56-5.28,6.64,3.13-4.11,3.07-4.11,2.83-3.88-.24.23-.83.88,2.2-2.98l-.22.27c-1.02,1.24-.21.14.65-.99.9-1.18,1.83-2.36,1.95-2.57-4.54,5.46.1-.17-4.11,4.79.08-.19.3-.47.57-.8l1.65-2.03,1.32-1.59c1.08-1.23.54-.53,1.33-1.43.28-.36.64-.76,1.06-1.22.22-.24.31-.34,1.3-1.42-.33.35-.4.43-1.07,1.14-.16.16-.11.09.11-.16-.44.46-.93,1-1.47,1.61-.26.23-.17.08.03-.15.2-.24.51-.57.8-.88.21-.22.42-.44.7-.72.14-.15.13-.15-.03-.07.15-.11.33-.24.52-.41-.14.11-.06-.01-.05-.1.01-.1,0-.23-.05-.6.04,0,.22-.15.27-.13.03,0,.05.02.04.08,0,.04-.09.2-.08.2.11-.15.21-.3.32-.45.12-.18.25-.37.38-.55.25-.38.49-.76.75-1.15.49-.78.98-1.58,1.46-2.35.96-1.55,1.88-3,2.77-4.01l-.03.3c.33-.55.41-1.08.99-1.65.03.07-.03.3.15.06.15-.31.76-1.55,1.32-2.19l-.28.69c1.04-1.32,1.69-2.43,2.28-3.51.29-.54.57-1.07.86-1.61.15-.27.31-.54.47-.83.08-.14.17-.28.26-.43.13-.2.26-.39.39-.6.2.1.94-.71,1.92-1.94.97-1.21,2.12-2.76,2.9-3.82l.1-.03c.76-1.07,1.45-2.07,2.03-2.93-2.63,1.33-5.06,2.61-7.21,3.78-1.02.56-2.05,1.11-3.1,1.69-.31.18-.62.36-.94.54-.13.09-.27.18-.41.27-.47-.09-.81.06-1.32.28.31-.35.66-.75,1-1-.21.13-.62.22-.5,0,.16-.13.2-.3.3-.48.03-.05.04-.08.08-.13.06-.08.11-.14.17-.18.1-.09.18-.11.24-.02l-.2.23c.71-.24,1.73-1.65,2.6-2.7l-.27-.51c2.84-2.26,5.68-7.38,7.44-8.44.44-.75,1.11-1.57,1.55-2.31l.19.21c1.56-1.79,2.34-2.69,4.15-5l-.22.59c1.06-1.27.69-2.13,1.65-3.33l.62-.09c1.82-2.24,3.96-4.26,5.48-6.71.02.08.06.22-.22.59.43-.52,1.32-1.49,2.01-2.33.17-.22.33-.43.48-.61.26-.33.47-.62.62-.85.31-.46.35-.66.06-.53.22.03,1.08-1.01,1.99-2.21.91-1.21,1.77-2.46,2.27-3.2.19-.09.38-.17.55-.24.04-.09.06-.17.04-.19-1.13.51-1.8.81-2.61,1.17-.69.3-1.4.58-2.55,1-.52.13-.27-.15.46-.31-.92.22-1.41.45-1.88.67-.47.22-.95.45-2.06.73.2-.13.54-.3.84-.46-.27.09-.5.16-.7.22-.15.05-.27.1-.39.13-.2.07-.34.14-.45.2-.23.13-.38.25-.73.48-.86.4-2.72.81-3,.64-.14.21-.86.66-1.72.86-.14-.05.14-.21.29-.29-1.22.3-2.07.66-2.84.99-.38.16-.76.32-1.1.44-.23.08-.48.14-.69.14.02-.1-.01-.14-.06-.16.63-.2,1.21-.38,1.61-.51.6-.19.95-.29.88-.26-.08-.24-1.62.21-.52-.52-.52.27-1.61.79-1.62.91-.28.21-.82.47-1.01.47.02-.03.03-.06.09-.12l.1-.06c-.06,0-.2.06-.4.17-.06-.02-.06-.06-.19-.02.1-.07.16-.12.2-.15.41-.3.37-.36.51-.5-.67.33-.24-.08-1.04.46.09-.07.02.03-.12.2-.02.03-.05.08-.03.08-.01,0-.03.01-.05.02l-.43.5.25-.09c-.19.1-.38.2-.57.3-.1-.01.06-.24.59-.66-.32.09-.51.02-.55-.07.71-.5,1.31-.94,1.71-1.19.43-.29.57-.26.85-.4,1.51-1.92,3.76-4.35,4.39-5.84.41-.56.65-.49.88-.63-.23.33-.55.68-.64.89.83-1.12,2.71-3.09,2.65-3.59,1.29-1.19-.4.96,1.16-.87l-.13.32c3.6-3.12,4.43-6.35,8.49-9.74-.28.24-.41.36-.51.37,4.24-4.22,7.99-9.37,12.32-13.4,1.2-1.18,1.14-1.47,1.69-2.35l.47-.07.91-1.53c1.47-2.02,3.42-2.7,5.16-5.36l-.42.17c.78-.81,2.3-2.74,2.34-2.44.05-.11.09-.42.46-.67l.14.08,1.65-2.24c1.52-1.52.24.67,2.36-1.64.73-.91,1.87-2.77,1.5-2.52-.32.34-.88.83-1.02.75l.65-.85c-.22-.45-.03-1.38-2.01.35l-1.01,1.55-.56.29,1.01-1.15c-.74.51-.97,1.04-1.28,1.59-.19.03-.42.16-.7.4l-.86,1.63c-.28.04.27-.84-.61-.01-.41.76.84-.33.02.8-.74.51-.7.2-1.25,1.08-.19.03-.1-.19.13-.52-.5.77-1.56,1.83-1.69,2.35-.8.5-2,2.33-2.27,1.97-.11.28-.81,1.42-1.36,2.06.63-1.49-2.11,2.31-2.27,1.63-.4,1.16-2.57,3.18-3.71,4.85.05-.11.14-.32.27-.44-.78.81-1.11.96-1.66,1.44.19.37-.91,1.74-1.36,2.6-1.2.78.22-.93-.34-.85.28.16-1.37,2-.86,1.83-.88.63-.69.6-1.3.79.24.47-.6.79-.96,1.64-1.2.98-.6-.01-1.62,1.34-.65.49.22-.73.22-.73ZM33.05,55.96s0,0,0,0c-.49.17-.91.31-1.18.4.25-.09.59-.2,1.19-.41ZM37.6,54.47c-.53.17-1.2.38-1.9.61-.12-.06.09-.24.52-.37-.12.07.06.05.38-.02.3-.06.81-.19,1.01-.21ZM35.4,53.03s-.17.16-.37.3c.03-.05.06-.09.09-.15-.02.01-.06.03-.08.04.11-.06.21-.11.36-.19Z"/>
    <path class="cls-1" d="M34.64,53.33s0-.02.02-.05c-.09.07-.18.14-.27.2.06-.02.11-.04.16-.05.03-.03.06-.07.08-.1Z"/>
    <path class="cls-1" d="M54.58,42.22h.07c-.06,0-.11,0-.15,0,.05,0,.05,0,.08,0Z"/>
    <polygon class="cls-1" points="31.77 71.88 31.83 71.92 31.97 71.65 31.77 71.88"/>
    <path class="cls-1" d="M50.99,38.26s.11-.05.21-.14c-.02,0-.11.06-.21.14Z"/>
    <path class="cls-1" d="M56.07,32.1l.79-.81c-.35.34-.6.6-.79.81Z"/>
    <path class="cls-1" d="M60.05,27.42c.01-.09,0-.13-.02-.17h0s.03.17.03.17Z"/>
    <path class="cls-1" d="M38.57,73.67c-.05.06-.11.13-.15.18-.33.45-.1.15.15-.18Z"/>
    <path class="cls-1" d="M57.59,51.69c-.17.26-.34.52-.53.78.36-.37.64-.66.53-.78Z"/>
    <path class="cls-1" d="M41.13,84.74h0s-.09.09-.13.14l.13-.14Z"/>
    <path class="cls-1" d="M56.15,53.47c.39-.35.67-.67.91-1-.3.3-.66.65-.91,1Z"/>
    <path class="cls-1" d="M76.93,6.84l.2-.22s-.02-.03-.01-.06l-.18.28Z"/>
    <path class="cls-1" d="M77.11,6.56l.18-.28c-.1.12-.18.22-.18.28Z"/>
    <path class="cls-1" d="M77.67,5.71l-.38.58c.15-.19.34-.41.38-.58Z"/>
    <path class="cls-1" d="M71.7,13.07l.02.14c.02-.05.01-.1-.02-.14Z"/>
    <path class="cls-1" d="M70.17,15.01c.39-.44,1.1-1.01,1.57-1.69v-.11c-.14.4-1.35,1.26-1.57,1.8Z"/>
    <path class="cls-1" d="M62.69,22.22l1.37-1.56c-.31.21-.73.49-.15-.26-1.9,1.82.53-.26-1.22,1.81Z"/>
    <path class="cls-1" d="M58.52,27.1c.66-.9-.13-.09-.14-.17-.37.61-.46.76.14.17Z"/>
    <path class="cls-1" d="M67.08,38.66l-.54.43c.45-.17.21-.17.54-.43Z"/>
    <path class="cls-1" d="M66.25,42.51l.68-.51c.01-.13.12-.36.16-.53l-.84,1.04Z"/>
    <polygon class="cls-1" points="61.38 45.17 61.6 44.86 60.71 45.99 61.38 45.17"/>
    <path class="cls-1" d="M33.29,89.86h.41c.34-.46.16-.78-.41,0Z"/>
    <path class="cls-1" d="M14.36,111.7c.4-.69.6-1.07-.24.11.13-.12-.06.28.24-.11Z"/>
    <polygon class="cls-1" points="28.07 80.38 27.72 80.97 28.46 79.93 28.07 80.38"/>
  </g>
</svg>